# generated closed two-lane road strip
mtllib sami_track_road.mtl
usemtl asphalt
v -0.021153 -0.236901 0.012000
v 0.032495 -0.240132 0.012000
v 0.086048 -0.242568 0.012000
v 0.139505 -0.244210 0.012000
v 0.192520 -0.245116 0.012000
v 0.244834 -0.245433 0.012000
v 0.296447 -0.245339 0.012000
v 0.347523 -0.244977 0.012000
v 0.398239 -0.244438 0.012000
v 0.448702 -0.243784 0.012000
v 0.498961 -0.243059 0.012000
v 0.549030 -0.242304 0.012000
v 0.598913 -0.241555 0.012000
v 0.648614 -0.240850 0.012000
v 0.698142 -0.240226 0.012000
v 0.747523 -0.239716 0.012000
v 0.796806 -0.239344 0.012000
v 0.846082 -0.239123 0.012000
v 0.895484 -0.239044 0.012000
v 0.945181 -0.239065 0.012000
v 0.995355 -0.239108 0.012000
v 1.046171 -0.239058 0.012000
v 1.097754 -0.238759 0.012000
v 1.150176 -0.238028 0.012000
v 1.203457 -0.236662 0.012000
v 1.257553 -0.234451 0.012000
v 1.312358 -0.231190 0.012000
v 1.367708 -0.226705 0.012000
v 1.423399 -0.220862 0.012000
v 1.479215 -0.213578 0.012000
v 1.534959 -0.204820 0.012000
v 1.590480 -0.194591 0.012000
v 1.645680 -0.182912 0.012000
v 1.700528 -0.169803 0.012000
v 1.755062 -0.155256 0.012000
v 1.809395 -0.139207 0.012000
v 1.863699 -0.121509 0.012000
v 1.918169 -0.101911 0.012000
v 1.972987 -0.080043 0.012000
v 2.028218 -0.055436 0.012000
v 2.083779 -0.027552 0.012000
v 2.139409 0.004196 0.012000
v 2.194588 0.040345 0.012000
v 2.248533 0.081265 0.012000
v 2.300252 0.127033 0.012000
v 2.348698 0.177352 0.012000
v 2.392971 0.231592 0.012000
v 2.432473 0.288932 0.012000
v 2.466945 0.348530 0.012000
v 2.496407 0.409621 0.012000
v 2.521048 0.471525 0.012000
v 2.541168 0.533575 0.012000
v 2.557160 0.595052 0.012000
v 2.569545 0.655161 0.012000
v 2.578991 0.713089 0.012000
v 2.586299 0.768084 0.012000
v 2.592327 0.819534 0.012000
v 2.597898 0.866991 0.012000
v 2.603721 0.910199 0.012000
v 2.610338 0.949154 0.012000
v 2.618139 0.984222 0.012000
v 2.627451 1.016231 0.012000
v 2.638666 1.046401 0.012000
v 2.652282 1.076083 0.012000
v 2.668807 1.106427 0.012000
v 2.688576 1.138205 0.012000
v 2.711630 1.171835 0.012000
v 2.737712 1.207520 0.012000
v 2.766351 1.245377 0.012000
v 2.796948 1.285512 0.012000
v 2.828854 1.328052 0.012000
v 2.861412 1.373158 0.012000
v 2.893978 1.421025 0.012000
v 2.925905 1.471878 0.012000
v 2.956518 1.525939 0.012000
v 2.985071 1.583360 0.012000
v 3.010749 1.644138 0.012000
v 3.032698 1.708030 0.012000
v 3.050128 1.774530 0.012000
v 3.062421 1.842933 0.012000
v 3.069193 1.912468 0.012000
v 3.070275 1.982456 0.012000
v 3.065622 2.052378 0.012000
v 3.055205 2.121856 0.012000
v 3.038961 2.190542 0.012000
v 3.016816 2.257987 0.012000
v 2.988790 2.323559 0.012000
v 2.955124 2.386459 0.012000
v 2.916359 2.445850 0.012000
v 2.873315 2.501046 0.012000
v 2.826950 2.551657 0.012000
v 2.778185 2.597644 0.012000
v 2.727740 2.639265 0.012000
v 2.676037 2.676965 0.012000
v 2.623162 2.711250 0.012000
v 2.568892 2.742565 0.012000
v 2.512771 2.771180 0.012000
v 2.454223 2.797104 0.012000
v 2.392699 2.820018 0.012000
v 2.327852 2.839269 0.012000
v 2.259746 2.853937 0.012000
v 2.189057 2.863026 0.012000
v 2.117144 2.865805 0.012000
v 2.045836 2.862159 0.012000
v 1.976971 2.852756 0.012000
v 1.911909 2.838879 0.012000
v 1.851305 2.822056 0.012000
v 1.795186 2.803721 0.012000
v 1.743162 2.785022 0.012000
v 1.694614 2.766780 0.012000
v 1.648802 2.749502 0.012000
v 1.604919 2.733425 0.012000
v 1.562138 2.718578 0.012000
v 1.519683 2.704857 0.012000
v 1.476913 2.692097 0.012000
v 1.433386 2.680113 0.012000
v 1.388873 2.668733 0.012000
v 1.343337 2.657803 0.012000
v 1.296902 2.647203 0.012000
v 1.249797 2.636854 0.012000
v 1.202305 2.626732 0.012000
v 1.154710 2.616862 0.012000
v 1.107241 2.607307 0.012000
v 1.060052 2.598154 0.012000
v 1.013209 2.589491 0.012000
v 0.966696 2.581397 0.012000
v 0.920413 2.573923 0.012000
v 0.874191 2.567088 0.012000
v 0.827807 2.560868 0.012000
v 0.781018 2.555196 0.012000
v 0.733610 2.549966 0.012000
v 0.685427 2.545043 0.012000
v 0.636402 2.540269 0.012000
v 0.586567 2.535481 0.012000
v 0.536052 2.530534 0.012000
v 0.485080 2.525321 0.012000
v 0.433933 2.519791 0.012000
v 0.382904 2.513964 0.012000
v 0.332248 2.507919 0.012000
v 0.282145 2.501777 0.012000
v 0.232696 2.495681 0.012000
v 0.183918 2.489772 0.012000
v 0.135754 2.484180 0.012000
v 0.088060 2.479000 0.012000
v 0.040599 2.474284 0.012000
v -0.006952 2.470025 0.012000
v -0.054968 2.466149 0.012000
v -0.103814 2.462509 0.012000
v -0.153789 2.458892 0.012000
v -0.205095 2.455022 0.012000
v -0.257822 2.450574 0.012000
v -0.311974 2.445187 0.012000
v -0.367484 2.438476 0.012000
v -0.424240 2.430043 0.012000
v -0.482106 2.419475 0.012000
v -0.540932 2.406343 0.012000
v -0.600564 2.390183 0.012000
v -0.660815 2.370483 0.012000
v -0.721426 2.346682 0.012000
v -0.781993 2.318192 0.012000
v -0.841889 2.284478 0.012000
v -0.900223 2.245184 0.012000
v -0.955892 2.200281 0.012000
v -1.007745 2.150158 0.012000
v -1.054813 2.095571 0.012000
v -1.096483 2.037469 0.012000
v -1.132535 1.976774 0.012000
v -1.163037 1.914251 0.012000
v -1.188205 1.850505 0.012000
v -1.208305 1.786077 0.012000
v -1.223630 1.721548 0.012000
v -1.234554 1.657590 0.012000
v -1.241584 1.594920 0.012000
v -1.245386 1.534201 0.012000
v -1.246736 1.475918 0.012000
v -1.246437 1.420292 0.012000
v -1.245216 1.367207 0.012000
v -1.243637 1.316139 0.012000
v -1.242032 1.266086 0.012000
v -1.240438 1.215604 0.012000
v -1.238528 1.163041 0.012000
v -1.235543 1.107000 0.012000
v -1.230311 1.046916 0.012000
v -1.221531 0.983524 0.012000
v -1.208378 0.918851 0.012000
v -1.191037 0.855499 0.012000
v -1.170641 0.795522 0.012000
v -1.148594 0.739669 0.012000
v -1.125882 0.687434 0.012000
v -1.102841 0.637617 0.012000
v -1.079301 0.588929 0.012000
v -1.054842 0.540383 0.012000
v -1.028978 0.491430 0.012000
v -1.001248 0.441924 0.012000
v -0.971245 0.392006 0.012000
v -0.938628 0.341995 0.012000
v -0.903136 0.292326 0.012000
v -0.864574 0.243459 0.012000
v -0.822765 0.195832 0.012000
v -0.777550 0.149877 0.012000
v -0.728784 0.106042 0.012000
v -0.676394 0.064847 0.012000
v -0.620498 0.026908 0.012000
v -0.561534 -0.007101 0.012000
v -0.500333 -0.036594 0.012000
v -0.438049 -0.061260 0.012000
v -0.375940 -0.081200 0.012000
v -0.315115 -0.096917 0.012000
v -0.256364 -0.109189 0.012000
v -0.200114 -0.118895 0.012000
v -0.146470 -0.126884 0.012000
v -0.095264 -0.133892 0.012000
v -0.046104 -0.140513 0.012000
v 0.001581 -0.147192 0.012000
v 0.048465 -0.154229 0.012000
v 0.095219 -0.161792 0.012000
v 0.142419 -0.169923 0.012000
v 0.190482 -0.178549 0.012000
v 0.239657 -0.187503 0.012000
v 0.290035 -0.196549 0.012000
v 0.341568 -0.205418 0.012000
v 0.394093 -0.213839 0.012000
v 0.447355 -0.221582 0.012000
v 0.501057 -0.228484 0.012000
v 0.554913 -0.234464 0.012000
v 0.608692 -0.239517 0.012000
v 0.662235 -0.243693 0.012000
v 0.715446 -0.247074 0.012000
v 0.768279 -0.249757 0.012000
v 0.820709 -0.251845 0.012000
v 0.872727 -0.253436 0.012000
v 0.924330 -0.254630 0.012000
v 0.975522 -0.255520 0.012000
v 1.026323 -0.256198 0.012000
v 1.076780 -0.256744 0.012000
v 1.126998 -0.257226 0.012000
v 1.177159 -0.257680 0.012000
v 1.227539 -0.258097 0.012000
v 1.278487 -0.258400 0.012000
v 1.330379 -0.258426 0.012000
v 1.383558 -0.257917 0.012000
v 1.438274 -0.256519 0.012000
v 1.494646 -0.253793 0.012000
v 1.552648 -0.249247 0.012000
v 1.612098 -0.242370 0.012000
v 1.672673 -0.232679 0.012000
v 1.733942 -0.219762 0.012000
v 1.795425 -0.203299 0.012000
v 1.856662 -0.183059 0.012000
v 1.917254 -0.158857 0.012000
v 1.976853 -0.130521 0.012000
v 2.035097 -0.097888 0.012000
v 2.091534 -0.060849 0.012000
v 2.145576 -0.019450 0.012000
v 2.196536 0.026004 0.012000
v 2.243757 0.074908 0.012000
v 2.286768 0.126413 0.012000
v 2.325398 0.179581 0.012000
v 2.359781 0.233531 0.012000
v 2.390291 0.287550 0.012000
v 2.417430 0.341114 0.012000
v 2.441747 0.393864 0.012000
v 2.463776 0.445560 0.012000
v 2.484011 0.496038 0.012000
v 2.502896 0.545177 0.012000
v 2.520825 0.592873 0.012000
v 2.538148 0.639029 0.012000
v 2.555177 0.683568 0.012000
v 2.572203 0.726461 0.012000
v 2.589499 0.767764 0.012000
v 2.607338 0.807660 0.012000
v 2.625992 0.846470 0.012000
v 2.645715 0.884608 0.012000
v 2.666716 0.922520 0.012000
v 2.689124 0.960613 0.012000
v 2.712967 0.999216 0.012000
v 2.738174 1.038587 0.012000
v 2.764597 1.078938 0.012000
v 2.792031 1.120462 0.012000
v 2.820235 1.163365 0.012000
v 2.848935 1.207867 0.012000
v 2.877823 1.254216 0.012000
v 2.906542 1.302672 0.012000
v 2.934675 1.353495 0.012000
v 2.961731 1.406911 0.012000
v 2.987130 1.463060 0.012000
v 3.010225 1.521938 0.012000
v 3.030345 1.583350 0.012000
v 3.046872 1.646907 0.012000
v 3.059316 1.712084 0.012000
v 3.067358 1.778318 0.012000
v 3.070837 1.845081 0.012000
v 3.069708 1.911911 0.012000
v 3.064008 1.978365 0.012000
v 3.053872 2.043947 0.012000
v 3.039592 2.108057 0.012000
v 3.021687 2.170018 0.012000
v 3.000928 2.229180 0.012000
v 2.978289 2.285054 0.012000
v 2.954814 2.337407 0.012000
v 2.931485 2.386272 0.012000
v 2.909117 2.431907 0.012000
v 2.888292 2.474741 0.012000
v 2.869337 2.515349 0.012000
v 2.852332 2.554435 0.012000
v 2.837167 2.592799 0.012000
v 2.823622 2.631250 0.012000
v 2.811452 2.670487 0.012000
v 2.800423 2.711012 0.012000
v 2.790327 2.753103 0.012000
v 2.780961 2.796844 0.012000
v 2.772122 2.842186 0.012000
v 2.763605 2.888992 0.012000
v 2.755213 2.937072 0.012000
v 2.746763 2.986210 0.012000
v 2.738097 3.036191 0.012000
v 2.729080 3.086827 0.012000
v 2.719595 3.137975 0.012000
v 2.709532 3.189541 0.012000
v 2.698786 3.241465 0.012000
v 2.687243 3.293717 0.012000
v 2.674783 3.346280 0.012000
v 2.661273 3.399141 0.012000
v 2.646565 3.452284 0.012000
v 2.630501 3.505682 0.012000
v 2.612914 3.559282 0.012000
v 2.593634 3.612997 0.012000
v 2.572507 3.666699 0.012000
v 2.549408 3.720203 0.012000
v 2.524266 3.773277 0.012000
v 2.497080 3.825649 0.012000
v 2.467933 3.877040 0.012000
v 2.436974 3.927205 0.012000
v 2.404397 3.975967 0.012000
v 2.370401 4.023236 0.012000
v 2.335166 4.068999 0.012000
v 2.298831 4.113305 0.012000
v 2.261493 4.156240 0.012000
v 2.223205 4.197901 0.012000
v 2.183984 4.238384 0.012000
v 2.143819 4.277765 0.012000
v 2.102692 4.316092 0.012000
v 2.060585 4.353379 0.012000
v 2.017489 4.389618 0.012000
v 1.973406 4.424777 0.012000
v 1.928348 4.458818 0.012000
v 1.882336 4.491696 0.012000
v 1.835395 4.523364 0.012000
v 1.787557 4.553780 0.012000
v 1.738861 4.582896 0.012000
v 1.689368 4.610666 0.012000
v 1.639191 4.637030 0.012000
v 1.588556 4.661915 0.012000
v 1.537894 4.685238 0.012000
v 1.487927 4.706940 0.012000
v 1.439681 4.727050 0.012000
v 1.394349 4.745738 0.012000
v 1.353015 4.763320 0.012000
v 1.316313 4.780218 0.012000
v 1.284145 4.796946 0.012000
v 1.255661 4.814156 0.012000
v 1.229558 4.832676 0.012000
v 1.204570 4.853382 0.012000
v 1.179835 4.876954 0.012000
v 1.154949 4.903696 0.012000
v 1.129804 4.933551 0.012000
v 1.104399 4.966251 0.012000
v 1.078712 5.001461 0.012000
v 1.052660 5.038861 0.012000
v 1.026102 5.078152 0.012000
v 0.998867 5.119043 0.012000
v 0.970787 5.161221 0.012000
v 0.941710 5.204358 0.012000
v 0.911511 5.248131 0.012000
v 0.880076 5.292249 0.012000
v 0.847291 5.336468 0.012000
v 0.813027 5.380591 0.012000
v 0.777130 5.424450 0.012000
v 0.739427 5.467887 0.012000
v 0.699730 5.510729 0.012000
v 0.657839 5.552775 0.012000
v 0.613558 5.593781 0.012000
v 0.566706 5.633454 0.012000
v 0.517144 5.671437 0.012000
v 0.464803 5.707314 0.012000
v 0.409734 5.740620 0.012000
v 0.352138 5.770869 0.012000
v 0.292388 5.797622 0.012000
v 0.230986 5.820546 0.012000
v 0.168494 5.839471 0.012000
v 0.105432 5.854395 0.012000
v 0.042211 5.865449 0.012000
v -0.020903 5.872833 0.012000
v -0.083779 5.876758 0.012000
v -0.146407 5.877393 0.012000
v -0.208862 5.874832 0.012000
v -0.271271 5.869063 0.012000
v -0.333761 5.859957 0.012000
v -0.396402 5.847273 0.012000
v -0.459143 5.830682 0.012000
v -0.521768 5.809815 0.012000
v -0.583869 5.784330 0.012000
v -0.644841 5.753999 0.012000
v -0.703941 5.718792 0.012000
v -0.760382 5.678919 0.012000
v -0.813469 5.634812 0.012000
v -0.862705 5.587035 0.012000
v -0.907818 5.536171 0.012000
v -0.948715 5.482757 0.012000
v -0.985401 5.427296 0.012000
v -1.017912 5.370341 0.012000
v -1.046331 5.312573 0.012000
v -1.070854 5.254786 0.012000
v -1.091867 5.197732 0.012000
v -1.109940 5.141900 0.012000
v -1.125728 5.087367 0.012000
v -1.139827 5.033844 0.012000
v -1.152677 4.980870 0.012000
v -1.164529 4.928035 0.012000
v -1.175484 4.875097 0.012000
v -1.185561 4.821995 0.012000
v -1.194753 4.768769 0.012000
v -1.203065 4.715501 0.012000
v -1.210518 4.662267 0.012000
v -1.217150 4.609129 0.012000
v -1.223010 4.556131 0.012000
v -1.228153 4.503309 0.012000
v -1.232640 4.450686 0.012000
v -1.236532 4.398276 0.012000
v -1.239888 4.346082 0.012000
v -1.242768 4.294101 0.012000
v -1.245224 4.242324 0.012000
v -1.247308 4.190743 0.012000
v -1.249064 4.139347 0.012000
v -1.250537 4.088125 0.012000
v -1.251765 4.037064 0.012000
v -1.252782 3.986149 0.012000
v -1.253620 3.935357 0.012000
v -1.254303 3.884667 0.012000
v -1.254852 3.834056 0.012000
v -1.255281 3.783505 0.012000
v -1.255601 3.732999 0.012000
v -1.255821 3.682531 0.012000
v -1.255949 3.632097 0.012000
v -1.255991 3.581694 0.012000
v -1.255954 3.531322 0.012000
v -1.255844 3.480982 0.012000
v -1.255668 3.430673 0.012000
v -1.255432 3.380396 0.012000
v -1.255143 3.330149 0.012000
v -1.254807 3.279934 0.012000
v -1.254431 3.229751 0.012000
v -1.254020 3.179599 0.012000
v -1.253582 3.129479 0.012000
v -1.253124 3.079390 0.012000
v -1.252650 3.029332 0.012000
v -1.252168 2.979305 0.012000
v -1.251684 2.929310 0.012000
v -1.251204 2.879346 0.012000
v -1.250735 2.829413 0.012000
v -1.250284 2.779510 0.012000
v -1.249855 2.729639 0.012000
v -1.249456 2.679799 0.012000
v -1.249094 2.629989 0.012000
v -1.248773 2.580210 0.012000
v -1.248501 2.530462 0.012000
v -1.248284 2.480744 0.012000
v -1.248127 2.431057 0.012000
v -1.248037 2.381399 0.012000
v -1.248020 2.331768 0.012000
v -1.248081 2.282160 0.012000
v -1.248224 2.232566 0.012000
v -1.248450 2.182977 0.012000
v -1.248759 2.133381 0.012000
v -1.249149 2.083764 0.012000
v -1.249615 2.034116 0.012000
v -1.250148 1.984429 0.012000
v -1.250741 1.934698 0.012000
v -1.251384 1.884921 0.012000
v -1.252068 1.835097 0.012000
v -1.252783 1.785225 0.012000
v -1.253519 1.735304 0.012000
v -1.254267 1.685335 0.012000
v -1.255016 1.635317 0.012000
v -1.255756 1.585248 0.012000
v -1.256477 1.535123 0.012000
v -1.257166 1.484929 0.012000
v -1.257808 1.434631 0.012000
v -1.258378 1.384164 0.012000
v -1.258832 1.333419 0.012000
v -1.259098 1.282227 0.012000
v -1.259057 1.230358 0.012000
v -1.258523 1.177503 0.012000
v -1.257210 1.123276 0.012000
v -1.254692 1.067236 0.012000
v -1.250361 1.008984 0.012000
v -1.243427 0.948349 0.012000
v -1.233016 0.885618 0.012000
v -1.218402 0.821690 0.012000
v -1.199303 0.757987 0.012000
v -1.176081 0.696098 0.012000
v -1.149662 0.637299 0.012000
v -1.121220 0.582241 0.012000
v -1.091826 0.530916 0.012000
v -1.062214 0.482809 0.012000
v -1.032706 0.437115 0.012000
v -1.003252 0.392923 0.012000
v -0.973527 0.349373 0.012000
v -0.943053 0.305793 0.012000
v -0.911300 0.261776 0.012000
v -0.877757 0.217213 0.012000
v -0.841976 0.172254 0.012000
v -0.803588 0.127249 0.012000
v -0.762315 0.082677 0.012000
v -0.717962 0.039079 0.012000
v -0.670396 -0.002997 0.012000
v -0.619519 -0.043017 0.012000
v -0.565253 -0.080453 0.012000
v -0.507586 -0.114740 0.012000
v -0.446708 -0.145234 0.012000
v -0.383225 -0.171249 0.012000
v -0.318344 -0.192240 0.012000
v -0.253793 -0.208106 0.012000
v -0.191319 -0.219402 0.012000
v -0.131952 -0.227218 0.012000
v -0.075572 -0.232750 0.012000
v 0.044144 0.720876 0.012000
v 0.083152 0.718530 0.012000
v 0.122589 0.716737 0.012000
v 0.162416 0.715517 0.012000
v 0.203598 0.714820 0.012000
v 0.246849 0.714565 0.012000
v 0.292150 0.714651 0.012000
v 0.339011 0.714986 0.012000
v 0.386921 0.715495 0.012000
v 0.435560 0.716126 0.012000
v 0.484793 0.716836 0.012000
v 0.534579 0.717588 0.012000
v 0.584906 0.718343 0.012000
v 0.635767 0.719064 0.012000
v 0.687135 0.719710 0.012000
v 0.738941 0.720246 0.012000
v 0.791036 0.720639 0.012000
v 0.843156 0.720872 0.012000
v 0.894910 0.720956 0.012000
v 0.945801 0.720935 0.012000
v 0.995301 0.720892 0.012000
v 1.042928 0.720937 0.012000
v 1.088315 0.721195 0.012000
v 1.131234 0.721785 0.012000
v 1.171604 0.722809 0.012000
v 1.209497 0.724346 0.012000
v 1.245137 0.726453 0.012000
v 1.278891 0.729178 0.012000
v 1.311221 0.732562 0.012000
v 1.342610 0.736653 0.012000
v 1.373480 0.741501 0.012000
v 1.404133 0.747149 0.012000
v 1.434721 0.753622 0.012000
v 1.465214 0.760910 0.012000
v 1.495370 0.768952 0.012000
v 1.524709 0.777610 0.012000
v 1.552517 0.786658 0.012000
v 1.577920 0.795770 0.012000
v 1.599937 0.804510 0.012000
v 1.617742 0.812382 0.012000
v 1.630735 0.818823 0.012000
v 1.638589 0.823207 0.012000
v 1.641485 0.824995 0.012000
v 1.640185 0.823904 0.012000
v 1.635993 0.820113 0.012000
v 1.630490 0.814358 0.012000
v 1.625138 0.807815 0.012000
v 1.620949 0.801795 0.012000
v 1.618372 0.797443 0.012000
v 1.617422 0.795609 0.012000
v 1.617892 0.796962 0.012000
v 1.619526 0.802229 0.012000
v 1.622093 0.812420 0.012000
v 1.625395 0.828888 0.012000
v 1.629272 0.853208 0.012000
v 1.633684 0.886935 0.012000
v 1.638865 0.931384 0.012000
v 1.645488 0.987469 0.012000
v 1.654783 1.055514 0.012000
v 1.668483 1.134922 0.012000
v 1.688494 1.223722 0.012000
v 1.716216 1.318306 0.012000
v 1.751757 1.413813 0.012000
v 1.793556 1.505255 0.012000
v 1.838807 1.588816 0.012000
v 1.884401 1.662516 0.012000
v 1.927760 1.726044 0.012000
v 1.967179 1.780127 0.012000
v 2.001779 1.825920 0.012000
v 2.031274 1.864601 0.012000
v 2.055740 1.897171 0.012000
v 2.075426 1.924362 0.012000
v 2.090633 1.946608 0.012000
v 2.101677 1.964066 0.012000
v 2.108926 1.976704 0.012000
v 2.112880 1.984462 0.012000
v 2.114239 1.987459 0.012000
v 2.113874 1.986172 0.012000
v 2.112702 1.981492 0.012000
v 2.111489 1.974568 0.012000
v 2.110714 1.966500 0.012000
v 2.110587 1.958010 0.012000
v 2.111172 1.949298 0.012000
v 2.112559 1.940146 0.012000
v 2.114933 1.930210 0.012000
v 2.118516 1.919376 0.012000
v 2.123387 1.908014 0.012000
v 2.129258 1.897025 0.012000
v 2.135361 1.887602 0.012000
v 2.140538 1.880854 0.012000
v 2.143531 1.877462 0.012000
v 2.143330 1.877533 0.012000
v 2.139446 1.880641 0.012000
v 2.132056 1.885963 0.012000
v 2.122012 1.892441 0.012000
v 2.110742 1.898943 0.012000
v 2.100049 1.904428 0.012000
v 2.091856 1.908121 0.012000
v 2.087919 1.909683 0.012000
v 2.089487 1.909333 0.012000
v 2.096877 1.907853 0.012000
v 2.109025 1.906368 0.012000
v 2.123296 1.905824 0.012000
v 2.135901 1.906393 0.012000
v 2.142910 1.907206 0.012000
v 2.141307 1.906690 0.012000
v 2.129486 1.903245 0.012000
v 2.107090 1.895802 0.012000
v 2.074572 1.884040 0.012000
v 2.032857 1.868342 0.012000
v 1.983227 1.849636 0.012000
v 1.927319 1.829180 0.012000
v 1.867073 1.808295 0.012000
v 1.804547 1.788096 0.012000
v 1.741628 1.769315 0.012000
v 1.679769 1.752268 0.012000
v 1.619865 1.736938 0.012000
v 1.562244 1.723095 0.012000
v 1.506751 1.710419 0.012000
v 1.452860 1.698577 0.012000
v 1.399835 1.687274 0.012000
v 1.346892 1.676295 0.012000
v 1.293350 1.665520 0.012000
v 1.238723 1.654927 0.012000
v 1.182768 1.644584 0.012000
v 1.125488 1.634621 0.012000
v 1.067139 1.625202 0.012000
v 1.008216 1.616490 0.012000
v 0.949399 1.608599 0.012000
v 0.891446 1.601568 0.012000
v 0.835058 1.595341 0.012000
v 0.780763 1.589788 0.012000
v 0.728832 1.584728 0.012000
v 0.679242 1.579965 0.012000
v 0.631668 1.575308 0.012000
v 0.585512 1.570589 0.012000
v 0.539987 1.565667 0.012000
v 0.494248 1.560443 0.012000
v 0.447537 1.554867 0.012000
v 0.399283 1.548950 0.012000
v 0.349140 1.542769 0.012000
v 0.296986 1.536454 0.012000
v 0.242929 1.530181 0.012000
v 0.187337 1.524147 0.012000
v 0.130880 1.518538 0.012000
v 0.074509 1.513488 0.012000
v 0.019347 1.509029 0.012000
v -0.033487 1.505088 0.012000
v -0.083055 1.501501 0.012000
v -0.128700 1.498066 0.012000
v -0.170054 1.494594 0.012000
v -0.206979 1.490946 0.012000
v -0.239484 1.487048 0.012000
v -0.267635 1.482902 0.012000
v -0.291484 1.478591 0.012000
v -0.311004 1.474285 0.012000
v -0.326056 1.470267 0.012000
v -0.336414 1.466954 0.012000
v -0.341861 1.464905 0.012000
v -0.342356 1.464776 0.012000
v -0.338250 1.467197 0.012000
v -0.330455 1.472549 0.012000
v -0.320426 1.480710 0.012000
v -0.309887 1.490920 0.012000
v -0.300374 1.501920 0.012000
v -0.292848 1.512331 0.012000
v -0.287594 1.521059 0.012000
v -0.284396 1.527481 0.012000
v -0.282822 1.531317 0.012000
v -0.282445 1.532338 0.012000
v -0.282923 1.530058 0.012000
v -0.283950 1.523602 0.012000
v -0.285189 1.511804 0.012000
v -0.286250 1.493473 0.012000
v -0.286772 1.467699 0.012000
v -0.286537 1.434117 0.012000
v -0.285567 1.393164 0.012000
v -0.284113 1.346367 0.012000
v -0.282518 1.296615 0.012000
v -0.280988 1.248111 0.012000
v -0.279477 1.205709 0.012000
v -0.277857 1.173606 0.012000
v -0.276275 1.153758 0.012000
v -0.275155 1.144682 0.012000
v -0.274539 1.141435 0.012000
v -0.273353 1.137378 0.012000
v -0.269673 1.126969 0.012000
v -0.261970 1.107770 0.012000
v -0.250067 1.080561 0.012000
v -0.235039 1.048130 0.012000
v -0.218452 1.013828 0.012000
v -0.201686 0.980525 0.012000
v -0.185662 0.950143 0.012000
v -0.170871 0.923665 0.012000
v -0.157534 0.901393 0.012000
v -0.145732 0.883211 0.012000
v -0.135438 0.868728 0.012000
v -0.126642 0.857508 0.012000
v -0.119438 0.849231 0.012000
v -0.114023 0.843657 0.012000
v -0.110674 0.840576 0.012000
v -0.109599 0.839665 0.012000
v -0.110659 0.840335 0.012000
v -0.113057 0.841703 0.012000
v -0.115186 0.842759 0.012000
v -0.114801 0.842682 0.012000
v -0.109509 0.841088 0.012000
v -0.097318 0.838051 0.012000
v -0.076981 0.833903 0.012000
v -0.048059 0.828986 0.012000
v -0.010819 0.823484 0.012000
v 0.033863 0.817384 0.012000
v 0.084569 0.810552 0.012000
v 0.139437 0.802859 0.012000
v 0.196368 0.794309 0.012000
v 0.253333 0.785098 0.012000
v 0.308670 0.775572 0.012000
v 0.361249 0.766141 0.012000
v 0.410496 0.757174 0.012000
v 0.456317 0.748940 0.012000
v 0.499009 0.741584 0.012000
v 0.539175 0.735135 0.012000
v 0.577622 0.729539 0.012000
v 0.615224 0.724703 0.012000
v 0.652779 0.720535 0.012000
v 0.690897 0.716957 0.012000
v 0.729973 0.713915 0.012000
v 0.770213 0.711363 0.012000
v 0.811702 0.709260 0.012000
v 0.854463 0.707562 0.012000
v 0.898490 0.706218 0.012000
v 0.943767 0.705174 0.012000
v 0.990265 0.704367 0.012000
v 1.037920 0.703732 0.012000
v 1.086582 0.703206 0.012000
v 1.135946 0.702732 0.012000
v 1.185476 0.702284 0.012000
v 1.234369 0.701879 0.012000
v 1.281609 0.701595 0.012000
v 1.326093 0.701565 0.012000
v 1.366813 0.701937 0.012000
v 1.402992 0.702833 0.012000
v 1.434168 0.704300 0.012000
v 1.460217 0.706293 0.012000
v 1.481337 0.708683 0.012000
v 1.498007 0.711298 0.012000
v 1.510894 0.713967 0.012000
v 1.520699 0.716552 0.012000
v 1.527986 0.718924 0.012000
v 1.533071 0.720918 0.012000
v 1.536052 0.722294 0.012000
v 1.536963 0.722759 0.012000
v 1.536016 0.722095 0.012000
v 1.533784 0.720355 0.012000
v 1.531211 0.718061 0.012000
v 1.529414 0.716246 0.012000
v 1.529377 0.716294 0.012000
v 1.531704 0.719627 0.012000
v 1.536560 0.727401 0.012000
v 1.543786 0.740352 0.012000
v 1.553064 0.758811 0.012000
v 1.564066 0.782805 0.012000
v 1.576542 0.812188 0.012000
v 1.590361 0.846738 0.012000
v 1.605517 0.886222 0.012000
v 1.622128 0.930429 0.012000
v 1.640423 0.979160 0.012000
v 1.660709 1.032175 0.012000
v 1.683327 1.089090 0.012000
v 1.708553 1.149254 0.012000
v 1.736484 1.211657 0.012000
v 1.766927 1.274964 0.012000
v 1.799356 1.337682 0.012000
v 1.832982 1.398426 0.012000
v 1.866899 1.456139 0.012000
v 1.900249 1.510184 0.012000
v 1.932310 1.560298 0.012000
v 1.962523 1.606457 0.012000
v 1.990459 1.648746 0.012000
v 2.015784 1.687253 0.012000
v 2.038228 1.722020 0.012000
v 2.057576 1.753011 0.012000
v 2.073685 1.780113 0.012000
v 2.086502 1.803164 0.012000
v 2.096111 1.822005 0.012000
v 2.102777 1.836584 0.012000
v 2.106960 1.847071 0.012000
v 2.109272 1.853949 0.012000
v 2.110366 1.857994 0.012000
v 2.110800 1.860134 0.012000
v 2.110946 1.861239 0.012000
v 2.110986 1.861957 0.012000
v 2.110969 1.862717 0.012000
v 2.110858 1.863885 0.012000
v 2.110505 1.866020 0.012000
v 2.109561 1.870063 0.012000
v 2.107381 1.877366 0.012000
v 2.103032 1.889500 0.012000
v 2.095456 1.907953 0.012000
v 2.083736 1.933893 0.012000
v 2.067363 1.968070 0.012000
v 2.046399 2.010815 0.012000
v 2.021536 2.062026 0.012000
v 1.994040 2.121070 0.012000
v 1.965571 2.186666 0.012000
v 1.937851 2.256896 0.012000
v 1.912296 2.329447 0.012000
v 1.889751 2.402031 0.012000
v 1.870453 2.472778 0.012000
v 1.854179 2.540437 0.012000
v 1.840458 2.604350 0.012000
v 1.828743 2.664322 0.012000
v 1.818511 2.720482 0.012000
v 1.809307 2.773174 0.012000
v 1.800762 2.822865 0.012000
v 1.792583 2.870050 0.012000
v 1.784552 2.915168 0.012000
v 1.776514 2.958538 0.012000
v 1.768359 3.000349 0.012000
v 1.760020 3.040673 0.012000
v 1.751451 3.079493 0.012000
v 1.742631 3.116735 0.012000
v 1.733554 3.152287 0.012000
v 1.724230 3.186016 0.012000
v 1.714684 3.217794 0.012000
v 1.704946 3.247519 0.012000
v 1.695046 3.275152 0.012000
v 1.684997 3.300740 0.012000
v 1.674775 3.324454 0.012000
v 1.664294 3.346605 0.012000
v 1.653385 3.367633 0.012000
v 1.641804 3.388050 0.012000
v 1.629268 3.408351 0.012000
v 1.615507 3.428927 0.012000
v 1.600327 3.450011 0.012000
v 1.583633 3.471673 0.012000
v 1.565435 3.493845 0.012000
v 1.545836 3.516369 0.012000
v 1.525004 3.539027 0.012000
v 1.503145 3.561584 0.012000
v 1.480472 3.583813 0.012000
v 1.457171 3.605527 0.012000
v 1.433387 3.626590 0.012000
v 1.409213 3.646920 0.012000
v 1.384703 3.666470 0.012000
v 1.359884 3.685223 0.012000
v 1.334767 3.703173 0.012000
v 1.309353 3.720321 0.012000
v 1.283640 3.736670 0.012000
v 1.257609 3.752236 0.012000
v 1.231195 3.767056 0.012000
v 1.204203 3.781235 0.012000
v 1.176149 3.795012 0.012000
v 1.146031 3.808857 0.012000
v 1.112139 3.823547 0.012000
v 1.072087 3.840216 0.012000
v 1.023251 3.860364 0.012000
v 0.963633 3.885834 0.012000
v 0.892901 3.918637 0.012000
v 0.813150 3.960427 0.012000
v 0.728797 4.011652 0.012000
v 0.645314 4.070929 0.012000
v 0.567389 4.135330 0.012000
v 0.497674 4.201487 0.012000
v 0.436739 4.266692 0.012000
v 0.383832 4.329294 0.012000
v 0.337714 4.388502 0.012000
v 0.297166 4.443980 0.012000
v 0.261181 4.495574 0.012000
v 0.228955 4.543217 0.012000
v 0.199821 4.586948 0.012000
v 0.173195 4.626948 0.012000
v 0.148550 4.663527 0.012000
v 0.125434 4.697056 0.012000
v 0.103495 4.727871 0.012000
v 0.082502 4.756212 0.012000
v 0.062349 4.782191 0.012000
v 0.043043 4.805810 0.012000
v 0.024674 4.827007 0.012000
v 0.007398 4.845690 0.012000
v -0.008588 4.861779 0.012000
v -0.023059 4.875228 0.012000
v -0.035788 4.886057 0.012000
v -0.046584 4.894384 0.012000
v -0.055358 4.900449 0.012000
v -0.062208 4.904635 0.012000
v -0.067492 4.907440 0.012000
v -0.071849 4.909404 0.012000
v -0.076123 4.910994 0.012000
v -0.081184 4.912507 0.012000
v -0.087731 4.914029 0.012000
v -0.096157 4.915473 0.012000
v -0.106503 4.916657 0.012000
v -0.118492 4.917385 0.012000
v -0.131581 4.917508 0.012000
v -0.145022 4.916957 0.012000
v -0.157930 4.915777 0.012000
v -0.169383 4.914135 0.012000
v -0.178548 4.912319 0.012000
v -0.184805 4.910715 0.012000
v -0.187858 4.909757 0.012000
v -0.187818 4.909833 0.012000
v -0.185227 4.911174 0.012000
v -0.180996 4.913727 0.012000
v -0.176218 4.917110 0.012000
v -0.171900 4.920677 0.012000
v -0.168731 4.923711 0.012000
v -0.166997 4.925611 0.012000
v -0.166677 4.925967 0.012000
v -0.167636 4.924443 0.012000
v -0.169815 4.920528 0.012000
v -0.173288 4.913327 0.012000
v -0.178176 4.901619 0.012000
v -0.184486 4.884267 0.012000
v -0.192017 4.860800 0.012000
v -0.200386 4.831747 0.012000
v -0.209125 4.798484 0.012000
v -0.217801 4.762677 0.012000
v -0.226094 4.725698 0.012000
v -0.233827 4.688330 0.012000
v -0.240946 4.650815 0.012000
v -0.247462 4.613080 0.012000
v -0.253409 4.574954 0.012000
v -0.258821 4.536278 0.012000
v -0.263727 4.496941 0.012000
v -0.268155 4.456869 0.012000
v -0.272130 4.416020 0.012000
v -0.275678 4.374376 0.012000
v -0.278826 4.331941 0.012000
v -0.281602 4.288741 0.012000
v -0.284034 4.244815 0.012000
v -0.286148 4.200211 0.012000
v -0.287974 4.154977 0.012000
v -0.289539 4.109158 0.012000
v -0.290871 4.062797 0.012000
v -0.291997 4.015941 0.012000
v -0.292942 3.968645 0.012000
v -0.293728 3.920973 0.012000
v -0.294374 3.872996 0.012000
v -0.294897 3.824783 0.012000
v -0.295307 3.776391 0.012000
v -0.295615 3.727862 0.012000
v -0.295827 3.679221 0.012000
v -0.295950 3.630482 0.012000
v -0.295991 3.581649 0.012000
v -0.295955 3.532725 0.012000
v -0.295848 3.483710 0.012000
v -0.295676 3.434604 0.012000
v -0.295445 3.385408 0.012000
v -0.295161 3.336122 0.012000
v -0.294831 3.286745 0.012000
v -0.294460 3.237277 0.012000
v -0.294055 3.187718 0.012000
v -0.293621 3.138069 0.012000
v -0.293165 3.088329 0.012000
v -0.292694 3.038498 0.012000
v -0.292213 2.988576 0.012000
v -0.291728 2.938564 0.012000
v -0.291248 2.888460 0.012000
v -0.290776 2.838265 0.012000
v -0.290321 2.787979 0.012000
v -0.289888 2.737603 0.012000
v -0.289484 2.687135 0.012000
v -0.289116 2.636576 0.012000
v -0.288790 2.585926 0.012000
v -0.288513 2.535186 0.012000
v -0.288290 2.484355 0.012000
v -0.288130 2.433435 0.012000
v -0.288038 2.382429 0.012000
v -0.288021 2.331344 0.012000
v -0.288083 2.280193 0.012000
v -0.288230 2.228999 0.012000
v -0.288464 2.177793 0.012000
v -0.288783 2.126611 0.012000
v -0.289185 2.075491 0.012000
v -0.289663 2.024464 0.012000
v -0.290210 1.973553 0.012000
v -0.290815 1.922773 0.012000
v -0.291470 1.872130 0.012000
v -0.292163 1.821628 0.012000
v -0.292885 1.771267 0.012000
v -0.293625 1.721048 0.012000
v -0.294374 1.670971 0.012000
v -0.295122 1.621038 0.012000
v -0.295858 1.571252 0.012000
v -0.296571 1.521627 0.012000
v -0.297251 1.472206 0.012000
v -0.297878 1.423083 0.012000
v -0.298427 1.374449 0.012000
v -0.298856 1.326624 0.012000
v -0.299100 1.280096 0.012000
v -0.299071 1.235544 0.012000
v -0.298662 1.193877 0.012000
v -0.297777 1.156264 0.012000
v -0.296377 1.124087 0.012000
v -0.294563 1.098710 0.012000
v -0.292639 1.081022 0.012000
v -0.291053 1.070832 0.012000
v -0.290124 1.066435 0.012000
v -0.289625 1.064723 0.012000
v -0.288537 1.061973 0.012000
v -0.285268 1.054937 0.012000
v -0.278267 1.041621 0.012000
v -0.266613 1.021449 0.012000
v -0.250284 0.995030 0.012000
v -0.230089 0.963810 0.012000
v -0.207379 0.929753 0.012000
v -0.183674 0.895021 0.012000
v -0.160341 0.861635 0.012000
v -0.138401 0.831185 0.012000
v -0.118494 0.804682 0.012000
v -0.100950 0.782566 0.012000
v -0.085878 0.764817 0.012000
v -0.073261 0.751112 0.012000
v -0.063029 0.740978 0.012000
v -0.055147 0.733935 0.012000
v -0.049687 0.729571 0.012000
v -0.046842 0.727538 0.012000
v -0.046786 0.727437 0.012000
v -0.049321 0.728656 0.012000
v -0.053324 0.730286 0.012000
v -0.056265 0.731294 0.012000
v -0.054370 0.730953 0.012000
v -0.043872 0.729207 0.012000
v -0.022863 0.726564 0.012000
v 0.007597 0.723640 0.012000
vt 0.000000 0.0
vt 0.125005 0.0
vt 0.250011 0.0
vt 0.375016 0.0
vt 0.500021 0.0
vt 0.625027 0.0
vt 0.750032 0.0
vt 0.875037 0.0
vt 1.000043 0.0
vt 1.125048 0.0
vt 1.250053 0.0
vt 1.375059 0.0
vt 1.500064 0.0
vt 1.625069 0.0
vt 1.750075 0.0
vt 1.875080 0.0
vt 2.000085 0.0
vt 2.125091 0.0
vt 2.250096 0.0
vt 2.375101 0.0
vt 2.500107 0.0
vt 2.625112 0.0
vt 2.750117 0.0
vt 2.875122 0.0
vt 3.000128 0.0
vt 3.125133 0.0
vt 3.250138 0.0
vt 3.375143 0.0
vt 3.500148 0.0
vt 3.625153 0.0
vt 3.750157 0.0
vt 3.875162 0.0
vt 4.000167 0.0
vt 4.125172 0.0
vt 4.250177 0.0
vt 4.375182 0.0
vt 4.500187 0.0
vt 4.625192 0.0
vt 4.750198 0.0
vt 4.875202 0.0
vt 5.000206 0.0
vt 5.125207 0.0
vt 5.250205 0.0
vt 5.375197 0.0
vt 5.500182 0.0
vt 5.625160 0.0
vt 5.750133 0.0
vt 5.875104 0.0
vt 6.000073 0.0
vt 6.125043 0.0
vt 6.250016 0.0
vt 6.374993 0.0
vt 6.499975 0.0
vt 6.624965 0.0
vt 6.749961 0.0
vt 6.874964 0.0
vt 6.999969 0.0
vt 7.124973 0.0
vt 7.249969 0.0
vt 7.374953 0.0
vt 7.499922 0.0
vt 7.624878 0.0
vt 7.749828 0.0
vt 7.874780 0.0
vt 7.999744 0.0
vt 8.124723 0.0
vt 8.249715 0.0
vt 8.374715 0.0
vt 8.499720 0.0
vt 8.624725 0.0
vt 8.749728 0.0
vt 8.874725 0.0
vt 8.999717 0.0
vt 9.124700 0.0
vt 9.249673 0.0
vt 9.374635 0.0
vt 9.499585 0.0
vt 9.624523 0.0
vt 9.749450 0.0
vt 9.874369 0.0
vt 9.999285 0.0
vt 10.124197 0.0
vt 10.249108 0.0
vt 10.374015 0.0
vt 10.498917 0.0
vt 10.623813 0.0
vt 10.748705 0.0
vt 10.873595 0.0
vt 10.998489 0.0
vt 11.123392 0.0
vt 11.248309 0.0
vt 11.373240 0.0
vt 11.498185 0.0
vt 11.623140 0.0
vt 11.748103 0.0
vt 11.873069 0.0
vt 11.998032 0.0
vt 12.122990 0.0
vt 12.247935 0.0
vt 12.372865 0.0
vt 12.497776 0.0
vt 12.622673 0.0
vt 12.747562 0.0
vt 12.872458 0.0
vt 12.997372 0.0
vt 13.122312 0.0
vt 13.247276 0.0
vt 13.372261 0.0
vt 13.497259 0.0
vt 13.622263 0.0
vt 13.747268 0.0
vt 13.872271 0.0
vt 13.997272 0.0
vt 14.122271 0.0
vt 14.247270 0.0
vt 14.372269 0.0
vt 14.497271 0.0
vt 14.622274 0.0
vt 14.747278 0.0
vt 14.872282 0.0
vt 14.997287 0.0
vt 15.122292 0.0
vt 15.247297 0.0
vt 15.372302 0.0
vt 15.497306 0.0
vt 15.622310 0.0
vt 15.747313 0.0
vt 15.872316 0.0
vt 15.997319 0.0
vt 16.122322 0.0
vt 16.247326 0.0
vt 16.372331 0.0
vt 16.497336 0.0
vt 16.622341 0.0
vt 16.747346 0.0
vt 16.872351 0.0
vt 16.997356 0.0
vt 17.122361 0.0
vt 17.247366 0.0
vt 17.372371 0.0
vt 17.497377 0.0
vt 17.622382 0.0
vt 17.747387 0.0
vt 17.872391 0.0
vt 17.997395 0.0
vt 18.122399 0.0
vt 18.247404 0.0
vt 18.372409 0.0
vt 18.497414 0.0
vt 18.622419 0.0
vt 18.747423 0.0
vt 18.872424 0.0
vt 18.997423 0.0
vt 19.122417 0.0
vt 19.247406 0.0
vt 19.372389 0.0
vt 19.497366 0.0
vt 19.622334 0.0
vt 19.747294 0.0
vt 19.872243 0.0
vt 19.997181 0.0
vt 20.122109 0.0
vt 20.247031 0.0
vt 20.371952 0.0
vt 20.496878 0.0
vt 20.621814 0.0
vt 20.746759 0.0
vt 20.871715 0.0
vt 20.996680 0.0
vt 21.121652 0.0
vt 21.246631 0.0
vt 21.371615 0.0
vt 21.496605 0.0
vt 21.621600 0.0
vt 21.746599 0.0
vt 21.871601 0.0
vt 21.996605 0.0
vt 22.121610 0.0
vt 22.246616 0.0
vt 22.371621 0.0
vt 22.496626 0.0
vt 22.621630 0.0
vt 22.746631 0.0
vt 22.871628 0.0
vt 22.996621 0.0
vt 23.121617 0.0
vt 23.246618 0.0
vt 23.371621 0.0
vt 23.496626 0.0
vt 23.621631 0.0
vt 23.746636 0.0
vt 23.871641 0.0
vt 23.996646 0.0
vt 24.121651 0.0
vt 24.246656 0.0
vt 24.371661 0.0
vt 24.496666 0.0
vt 24.621669 0.0
vt 24.746671 0.0
vt 24.871671 0.0
vt 24.996667 0.0
vt 25.121659 0.0
vt 25.246646 0.0
vt 25.371628 0.0
vt 25.496608 0.0
vt 25.621589 0.0
vt 25.746574 0.0
vt 25.871564 0.0
vt 25.996561 0.0
vt 26.121562 0.0
vt 26.246566 0.0
vt 26.371572 0.0
vt 26.496577 0.0
vt 26.621582 0.0
vt 26.746586 0.0
vt 26.871591 0.0
vt 26.996596 0.0
vt 27.121601 0.0
vt 27.246606 0.0
vt 27.371611 0.0
vt 27.496616 0.0
vt 27.621620 0.0
vt 27.746623 0.0
vt 27.871627 0.0
vt 27.996630 0.0
vt 28.121634 0.0
vt 28.246638 0.0
vt 28.371642 0.0
vt 28.496646 0.0
vt 28.621651 0.0
vt 28.746656 0.0
vt 28.871661 0.0
vt 28.996666 0.0
vt 29.121672 0.0
vt 29.246677 0.0
vt 29.371682 0.0
vt 29.496688 0.0
vt 29.621693 0.0
vt 29.746698 0.0
vt 29.871703 0.0
vt 29.996707 0.0
vt 30.121709 0.0
vt 30.246710 0.0
vt 30.371707 0.0
vt 30.496701 0.0
vt 30.621690 0.0
vt 30.746676 0.0
vt 30.871658 0.0
vt 30.996637 0.0
vt 31.121610 0.0
vt 31.246579 0.0
vt 31.371543 0.0
vt 31.496500 0.0
vt 31.621452 0.0
vt 31.746400 0.0
vt 31.871349 0.0
vt 31.996302 0.0
vt 32.121262 0.0
vt 32.246231 0.0
vt 32.371210 0.0
vt 32.496197 0.0
vt 32.621190 0.0
vt 32.746189 0.0
vt 32.871191 0.0
vt 32.996195 0.0
vt 33.121200 0.0
vt 33.246206 0.0
vt 33.371209 0.0
vt 33.496211 0.0
vt 33.621210 0.0
vt 33.746206 0.0
vt 33.871201 0.0
vt 33.996196 0.0
vt 34.121193 0.0
vt 34.246191 0.0
vt 34.371193 0.0
vt 34.496196 0.0
vt 34.621201 0.0
vt 34.746206 0.0
vt 34.871211 0.0
vt 34.996214 0.0
vt 35.121214 0.0
vt 35.246210 0.0
vt 35.371201 0.0
vt 35.496184 0.0
vt 35.621159 0.0
vt 35.746125 0.0
vt 35.871083 0.0
vt 35.996033 0.0
vt 36.120977 0.0
vt 36.245919 0.0
vt 36.370859 0.0
vt 36.495798 0.0
vt 36.620737 0.0
vt 36.745678 0.0
vt 36.870624 0.0
vt 36.995578 0.0
vt 37.120544 0.0
vt 37.245523 0.0
vt 37.370516 0.0
vt 37.495517 0.0
vt 37.620522 0.0
vt 37.745526 0.0
vt 37.870523 0.0
vt 37.995514 0.0
vt 38.120498 0.0
vt 38.245481 0.0
vt 38.370466 0.0
vt 38.495455 0.0
vt 38.620449 0.0
vt 38.745448 0.0
vt 38.870450 0.0
vt 38.995454 0.0
vt 39.120459 0.0
vt 39.245464 0.0
vt 39.370469 0.0
vt 39.495474 0.0
vt 39.620478 0.0
vt 39.745482 0.0
vt 39.870485 0.0
vt 39.995487 0.0
vt 40.120488 0.0
vt 40.245488 0.0
vt 40.370487 0.0
vt 40.495484 0.0
vt 40.620478 0.0
vt 40.745471 0.0
vt 40.870461 0.0
vt 40.995448 0.0
vt 41.120434 0.0
vt 41.245418 0.0
vt 41.370402 0.0
vt 41.495387 0.0
vt 41.620373 0.0
vt 41.745361 0.0
vt 41.870351 0.0
vt 41.995343 0.0
vt 42.120336 0.0
vt 42.245331 0.0
vt 42.370326 0.0
vt 42.495321 0.0
vt 42.620316 0.0
vt 42.745312 0.0
vt 42.870307 0.0
vt 42.995302 0.0
vt 43.120296 0.0
vt 43.245290 0.0
vt 43.370284 0.0
vt 43.495278 0.0
vt 43.620272 0.0
vt 43.745265 0.0
vt 43.870259 0.0
vt 43.995253 0.0
vt 44.120249 0.0
vt 44.245249 0.0
vt 44.370253 0.0
vt 44.495258 0.0
vt 44.620257 0.0
vt 44.745237 0.0
vt 44.870192 0.0
vt 44.995123 0.0
vt 45.120042 0.0
vt 45.244967 0.0
vt 45.369907 0.0
vt 45.494865 0.0
vt 45.619839 0.0
vt 45.744826 0.0
vt 45.869820 0.0
vt 45.994820 0.0
vt 46.119824 0.0
vt 46.244829 0.0
vt 46.369834 0.0
vt 46.494838 0.0
vt 46.619841 0.0
vt 46.744842 0.0
vt 46.869841 0.0
vt 46.994838 0.0
vt 47.119832 0.0
vt 47.244823 0.0
vt 47.369810 0.0
vt 47.494794 0.0
vt 47.619772 0.0
vt 47.744745 0.0
vt 47.869711 0.0
vt 47.994672 0.0
vt 48.119626 0.0
vt 48.244575 0.0
vt 48.369521 0.0
vt 48.494467 0.0
vt 48.619415 0.0
vt 48.744368 0.0
vt 48.869325 0.0
vt 48.994287 0.0
vt 49.119252 0.0
vt 49.244221 0.0
vt 49.369191 0.0
vt 49.494160 0.0
vt 49.619128 0.0
vt 49.744091 0.0
vt 49.869050 0.0
vt 49.994002 0.0
vt 50.118947 0.0
vt 50.243887 0.0
vt 50.368823 0.0
vt 50.493759 0.0
vt 50.618698 0.0
vt 50.743642 0.0
vt 50.868593 0.0
vt 50.993550 0.0
vt 51.118513 0.0
vt 51.243481 0.0
vt 51.368456 0.0
vt 51.493437 0.0
vt 51.618426 0.0
vt 51.743420 0.0
vt 51.868418 0.0
vt 51.993420 0.0
vt 52.118423 0.0
vt 52.243426 0.0
vt 52.368429 0.0
vt 52.493432 0.0
vt 52.618436 0.0
vt 52.743439 0.0
vt 52.868443 0.0
vt 52.993446 0.0
vt 53.118450 0.0
vt 53.243454 0.0
vt 53.368459 0.0
vt 53.493463 0.0
vt 53.618468 0.0
vt 53.743472 0.0
vt 53.868477 0.0
vt 53.993482 0.0
vt 54.118487 0.0
vt 54.243492 0.0
vt 54.368498 0.0
vt 54.493503 0.0
vt 54.618508 0.0
vt 54.743513 0.0
vt 54.868518 0.0
vt 54.993524 0.0
vt 55.118529 0.0
vt 55.243534 0.0
vt 55.368540 0.0
vt 55.493545 0.0
vt 55.618550 0.0
vt 55.743556 0.0
vt 55.868561 0.0
vt 55.993566 0.0
vt 56.118572 0.0
vt 56.243577 0.0
vt 56.368582 0.0
vt 56.493588 0.0
vt 56.618593 0.0
vt 56.743598 0.0
vt 56.868604 0.0
vt 56.993609 0.0
vt 57.118614 0.0
vt 57.243620 0.0
vt 57.368625 0.0
vt 57.493630 0.0
vt 57.618636 0.0
vt 57.743641 0.0
vt 57.868646 0.0
vt 57.993651 0.0
vt 58.118657 0.0
vt 58.243662 0.0
vt 58.368667 0.0
vt 58.493673 0.0
vt 58.618678 0.0
vt 58.743683 0.0
vt 58.868689 0.0
vt 58.993694 0.0
vt 59.118699 0.0
vt 59.243705 0.0
vt 59.368710 0.0
vt 59.493715 0.0
vt 59.618721 0.0
vt 59.743726 0.0
vt 59.868731 0.0
vt 59.993737 0.0
vt 60.118742 0.0
vt 60.243747 0.0
vt 60.368753 0.0
vt 60.493758 0.0
vt 60.618763 0.0
vt 60.743769 0.0
vt 60.868774 0.0
vt 60.993779 0.0
vt 61.118784 0.0
vt 61.243790 0.0
vt 61.368795 0.0
vt 61.493799 0.0
vt 61.618802 0.0
vt 61.743803 0.0
vt 61.868799 0.0
vt 61.993788 0.0
vt 62.118767 0.0
vt 62.243738 0.0
vt 62.368705 0.0
vt 62.493673 0.0
vt 62.618649 0.0
vt 62.743634 0.0
vt 62.868628 0.0
vt 62.993627 0.0
vt 63.118629 0.0
vt 63.243634 0.0
vt 63.368638 0.0
vt 63.493643 0.0
vt 63.618646 0.0
vt 63.743649 0.0
vt 63.868649 0.0
vt 63.993646 0.0
vt 64.118640 0.0
vt 64.243631 0.0
vt 64.368620 0.0
vt 64.493606 0.0
vt 64.618591 0.0
vt 64.743575 0.0
vt 64.868559 0.0
vt 64.993545 0.0
vt 65.118535 0.0
vt 65.243531 0.0
vt 65.368532 0.0
vt 65.493536 0.0
vt 65.618541 0.0
vt 0.000000 1.0
vt 0.125005 1.0
vt 0.250011 1.0
vt 0.375016 1.0
vt 0.500021 1.0
vt 0.625027 1.0
vt 0.750032 1.0
vt 0.875037 1.0
vt 1.000043 1.0
vt 1.125048 1.0
vt 1.250053 1.0
vt 1.375059 1.0
vt 1.500064 1.0
vt 1.625069 1.0
vt 1.750075 1.0
vt 1.875080 1.0
vt 2.000085 1.0
vt 2.125091 1.0
vt 2.250096 1.0
vt 2.375101 1.0
vt 2.500107 1.0
vt 2.625112 1.0
vt 2.750117 1.0
vt 2.875122 1.0
vt 3.000128 1.0
vt 3.125133 1.0
vt 3.250138 1.0
vt 3.375143 1.0
vt 3.500148 1.0
vt 3.625153 1.0
vt 3.750157 1.0
vt 3.875162 1.0
vt 4.000167 1.0
vt 4.125172 1.0
vt 4.250177 1.0
vt 4.375182 1.0
vt 4.500187 1.0
vt 4.625192 1.0
vt 4.750198 1.0
vt 4.875202 1.0
vt 5.000206 1.0
vt 5.125207 1.0
vt 5.250205 1.0
vt 5.375197 1.0
vt 5.500182 1.0
vt 5.625160 1.0
vt 5.750133 1.0
vt 5.875104 1.0
vt 6.000073 1.0
vt 6.125043 1.0
vt 6.250016 1.0
vt 6.374993 1.0
vt 6.499975 1.0
vt 6.624965 1.0
vt 6.749961 1.0
vt 6.874964 1.0
vt 6.999969 1.0
vt 7.124973 1.0
vt 7.249969 1.0
vt 7.374953 1.0
vt 7.499922 1.0
vt 7.624878 1.0
vt 7.749828 1.0
vt 7.874780 1.0
vt 7.999744 1.0
vt 8.124723 1.0
vt 8.249715 1.0
vt 8.374715 1.0
vt 8.499720 1.0
vt 8.624725 1.0
vt 8.749728 1.0
vt 8.874725 1.0
vt 8.999717 1.0
vt 9.124700 1.0
vt 9.249673 1.0
vt 9.374635 1.0
vt 9.499585 1.0
vt 9.624523 1.0
vt 9.749450 1.0
vt 9.874369 1.0
vt 9.999285 1.0
vt 10.124197 1.0
vt 10.249108 1.0
vt 10.374015 1.0
vt 10.498917 1.0
vt 10.623813 1.0
vt 10.748705 1.0
vt 10.873595 1.0
vt 10.998489 1.0
vt 11.123392 1.0
vt 11.248309 1.0
vt 11.373240 1.0
vt 11.498185 1.0
vt 11.623140 1.0
vt 11.748103 1.0
vt 11.873069 1.0
vt 11.998032 1.0
vt 12.122990 1.0
vt 12.247935 1.0
vt 12.372865 1.0
vt 12.497776 1.0
vt 12.622673 1.0
vt 12.747562 1.0
vt 12.872458 1.0
vt 12.997372 1.0
vt 13.122312 1.0
vt 13.247276 1.0
vt 13.372261 1.0
vt 13.497259 1.0
vt 13.622263 1.0
vt 13.747268 1.0
vt 13.872271 1.0
vt 13.997272 1.0
vt 14.122271 1.0
vt 14.247270 1.0
vt 14.372269 1.0
vt 14.497271 1.0
vt 14.622274 1.0
vt 14.747278 1.0
vt 14.872282 1.0
vt 14.997287 1.0
vt 15.122292 1.0
vt 15.247297 1.0
vt 15.372302 1.0
vt 15.497306 1.0
vt 15.622310 1.0
vt 15.747313 1.0
vt 15.872316 1.0
vt 15.997319 1.0
vt 16.122322 1.0
vt 16.247326 1.0
vt 16.372331 1.0
vt 16.497336 1.0
vt 16.622341 1.0
vt 16.747346 1.0
vt 16.872351 1.0
vt 16.997356 1.0
vt 17.122361 1.0
vt 17.247366 1.0
vt 17.372371 1.0
vt 17.497377 1.0
vt 17.622382 1.0
vt 17.747387 1.0
vt 17.872391 1.0
vt 17.997395 1.0
vt 18.122399 1.0
vt 18.247404 1.0
vt 18.372409 1.0
vt 18.497414 1.0
vt 18.622419 1.0
vt 18.747423 1.0
vt 18.872424 1.0
vt 18.997423 1.0
vt 19.122417 1.0
vt 19.247406 1.0
vt 19.372389 1.0
vt 19.497366 1.0
vt 19.622334 1.0
vt 19.747294 1.0
vt 19.872243 1.0
vt 19.997181 1.0
vt 20.122109 1.0
vt 20.247031 1.0
vt 20.371952 1.0
vt 20.496878 1.0
vt 20.621814 1.0
vt 20.746759 1.0
vt 20.871715 1.0
vt 20.996680 1.0
vt 21.121652 1.0
vt 21.246631 1.0
vt 21.371615 1.0
vt 21.496605 1.0
vt 21.621600 1.0
vt 21.746599 1.0
vt 21.871601 1.0
vt 21.996605 1.0
vt 22.121610 1.0
vt 22.246616 1.0
vt 22.371621 1.0
vt 22.496626 1.0
vt 22.621630 1.0
vt 22.746631 1.0
vt 22.871628 1.0
vt 22.996621 1.0
vt 23.121617 1.0
vt 23.246618 1.0
vt 23.371621 1.0
vt 23.496626 1.0
vt 23.621631 1.0
vt 23.746636 1.0
vt 23.871641 1.0
vt 23.996646 1.0
vt 24.121651 1.0
vt 24.246656 1.0
vt 24.371661 1.0
vt 24.496666 1.0
vt 24.621669 1.0
vt 24.746671 1.0
vt 24.871671 1.0
vt 24.996667 1.0
vt 25.121659 1.0
vt 25.246646 1.0
vt 25.371628 1.0
vt 25.496608 1.0
vt 25.621589 1.0
vt 25.746574 1.0
vt 25.871564 1.0
vt 25.996561 1.0
vt 26.121562 1.0
vt 26.246566 1.0
vt 26.371572 1.0
vt 26.496577 1.0
vt 26.621582 1.0
vt 26.746586 1.0
vt 26.871591 1.0
vt 26.996596 1.0
vt 27.121601 1.0
vt 27.246606 1.0
vt 27.371611 1.0
vt 27.496616 1.0
vt 27.621620 1.0
vt 27.746623 1.0
vt 27.871627 1.0
vt 27.996630 1.0
vt 28.121634 1.0
vt 28.246638 1.0
vt 28.371642 1.0
vt 28.496646 1.0
vt 28.621651 1.0
vt 28.746656 1.0
vt 28.871661 1.0
vt 28.996666 1.0
vt 29.121672 1.0
vt 29.246677 1.0
vt 29.371682 1.0
vt 29.496688 1.0
vt 29.621693 1.0
vt 29.746698 1.0
vt 29.871703 1.0
vt 29.996707 1.0
vt 30.121709 1.0
vt 30.246710 1.0
vt 30.371707 1.0
vt 30.496701 1.0
vt 30.621690 1.0
vt 30.746676 1.0
vt 30.871658 1.0
vt 30.996637 1.0
vt 31.121610 1.0
vt 31.246579 1.0
vt 31.371543 1.0
vt 31.496500 1.0
vt 31.621452 1.0
vt 31.746400 1.0
vt 31.871349 1.0
vt 31.996302 1.0
vt 32.121262 1.0
vt 32.246231 1.0
vt 32.371210 1.0
vt 32.496197 1.0
vt 32.621190 1.0
vt 32.746189 1.0
vt 32.871191 1.0
vt 32.996195 1.0
vt 33.121200 1.0
vt 33.246206 1.0
vt 33.371209 1.0
vt 33.496211 1.0
vt 33.621210 1.0
vt 33.746206 1.0
vt 33.871201 1.0
vt 33.996196 1.0
vt 34.121193 1.0
vt 34.246191 1.0
vt 34.371193 1.0
vt 34.496196 1.0
vt 34.621201 1.0
vt 34.746206 1.0
vt 34.871211 1.0
vt 34.996214 1.0
vt 35.121214 1.0
vt 35.246210 1.0
vt 35.371201 1.0
vt 35.496184 1.0
vt 35.621159 1.0
vt 35.746125 1.0
vt 35.871083 1.0
vt 35.996033 1.0
vt 36.120977 1.0
vt 36.245919 1.0
vt 36.370859 1.0
vt 36.495798 1.0
vt 36.620737 1.0
vt 36.745678 1.0
vt 36.870624 1.0
vt 36.995578 1.0
vt 37.120544 1.0
vt 37.245523 1.0
vt 37.370516 1.0
vt 37.495517 1.0
vt 37.620522 1.0
vt 37.745526 1.0
vt 37.870523 1.0
vt 37.995514 1.0
vt 38.120498 1.0
vt 38.245481 1.0
vt 38.370466 1.0
vt 38.495455 1.0
vt 38.620449 1.0
vt 38.745448 1.0
vt 38.870450 1.0
vt 38.995454 1.0
vt 39.120459 1.0
vt 39.245464 1.0
vt 39.370469 1.0
vt 39.495474 1.0
vt 39.620478 1.0
vt 39.745482 1.0
vt 39.870485 1.0
vt 39.995487 1.0
vt 40.120488 1.0
vt 40.245488 1.0
vt 40.370487 1.0
vt 40.495484 1.0
vt 40.620478 1.0
vt 40.745471 1.0
vt 40.870461 1.0
vt 40.995448 1.0
vt 41.120434 1.0
vt 41.245418 1.0
vt 41.370402 1.0
vt 41.495387 1.0
vt 41.620373 1.0
vt 41.745361 1.0
vt 41.870351 1.0
vt 41.995343 1.0
vt 42.120336 1.0
vt 42.245331 1.0
vt 42.370326 1.0
vt 42.495321 1.0
vt 42.620316 1.0
vt 42.745312 1.0
vt 42.870307 1.0
vt 42.995302 1.0
vt 43.120296 1.0
vt 43.245290 1.0
vt 43.370284 1.0
vt 43.495278 1.0
vt 43.620272 1.0
vt 43.745265 1.0
vt 43.870259 1.0
vt 43.995253 1.0
vt 44.120249 1.0
vt 44.245249 1.0
vt 44.370253 1.0
vt 44.495258 1.0
vt 44.620257 1.0
vt 44.745237 1.0
vt 44.870192 1.0
vt 44.995123 1.0
vt 45.120042 1.0
vt 45.244967 1.0
vt 45.369907 1.0
vt 45.494865 1.0
vt 45.619839 1.0
vt 45.744826 1.0
vt 45.869820 1.0
vt 45.994820 1.0
vt 46.119824 1.0
vt 46.244829 1.0
vt 46.369834 1.0
vt 46.494838 1.0
vt 46.619841 1.0
vt 46.744842 1.0
vt 46.869841 1.0
vt 46.994838 1.0
vt 47.119832 1.0
vt 47.244823 1.0
vt 47.369810 1.0
vt 47.494794 1.0
vt 47.619772 1.0
vt 47.744745 1.0
vt 47.869711 1.0
vt 47.994672 1.0
vt 48.119626 1.0
vt 48.244575 1.0
vt 48.369521 1.0
vt 48.494467 1.0
vt 48.619415 1.0
vt 48.744368 1.0
vt 48.869325 1.0
vt 48.994287 1.0
vt 49.119252 1.0
vt 49.244221 1.0
vt 49.369191 1.0
vt 49.494160 1.0
vt 49.619128 1.0
vt 49.744091 1.0
vt 49.869050 1.0
vt 49.994002 1.0
vt 50.118947 1.0
vt 50.243887 1.0
vt 50.368823 1.0
vt 50.493759 1.0
vt 50.618698 1.0
vt 50.743642 1.0
vt 50.868593 1.0
vt 50.993550 1.0
vt 51.118513 1.0
vt 51.243481 1.0
vt 51.368456 1.0
vt 51.493437 1.0
vt 51.618426 1.0
vt 51.743420 1.0
vt 51.868418 1.0
vt 51.993420 1.0
vt 52.118423 1.0
vt 52.243426 1.0
vt 52.368429 1.0
vt 52.493432 1.0
vt 52.618436 1.0
vt 52.743439 1.0
vt 52.868443 1.0
vt 52.993446 1.0
vt 53.118450 1.0
vt 53.243454 1.0
vt 53.368459 1.0
vt 53.493463 1.0
vt 53.618468 1.0
vt 53.743472 1.0
vt 53.868477 1.0
vt 53.993482 1.0
vt 54.118487 1.0
vt 54.243492 1.0
vt 54.368498 1.0
vt 54.493503 1.0
vt 54.618508 1.0
vt 54.743513 1.0
vt 54.868518 1.0
vt 54.993524 1.0
vt 55.118529 1.0
vt 55.243534 1.0
vt 55.368540 1.0
vt 55.493545 1.0
vt 55.618550 1.0
vt 55.743556 1.0
vt 55.868561 1.0
vt 55.993566 1.0
vt 56.118572 1.0
vt 56.243577 1.0
vt 56.368582 1.0
vt 56.493588 1.0
vt 56.618593 1.0
vt 56.743598 1.0
vt 56.868604 1.0
vt 56.993609 1.0
vt 57.118614 1.0
vt 57.243620 1.0
vt 57.368625 1.0
vt 57.493630 1.0
vt 57.618636 1.0
vt 57.743641 1.0
vt 57.868646 1.0
vt 57.993651 1.0
vt 58.118657 1.0
vt 58.243662 1.0
vt 58.368667 1.0
vt 58.493673 1.0
vt 58.618678 1.0
vt 58.743683 1.0
vt 58.868689 1.0
vt 58.993694 1.0
vt 59.118699 1.0
vt 59.243705 1.0
vt 59.368710 1.0
vt 59.493715 1.0
vt 59.618721 1.0
vt 59.743726 1.0
vt 59.868731 1.0
vt 59.993737 1.0
vt 60.118742 1.0
vt 60.243747 1.0
vt 60.368753 1.0
vt 60.493758 1.0
vt 60.618763 1.0
vt 60.743769 1.0
vt 60.868774 1.0
vt 60.993779 1.0
vt 61.118784 1.0
vt 61.243790 1.0
vt 61.368795 1.0
vt 61.493799 1.0
vt 61.618802 1.0
vt 61.743803 1.0
vt 61.868799 1.0
vt 61.993788 1.0
vt 62.118767 1.0
vt 62.243738 1.0
vt 62.368705 1.0
vt 62.493673 1.0
vt 62.618649 1.0
vt 62.743634 1.0
vt 62.868628 1.0
vt 62.993627 1.0
vt 63.118629 1.0
vt 63.243634 1.0
vt 63.368638 1.0
vt 63.493643 1.0
vt 63.618646 1.0
vt 63.743649 1.0
vt 63.868649 1.0
vt 63.993646 1.0
vt 64.118640 1.0
vt 64.243631 1.0
vt 64.368620 1.0
vt 64.493606 1.0
vt 64.618591 1.0
vt 64.743575 1.0
vt 64.868559 1.0
vt 64.993545 1.0
vt 65.118535 1.0
vt 65.243531 1.0
vt 65.368532 1.0
vt 65.493536 1.0
vt 65.618541 1.0
vn 0.0 0.0 1.0
f 1/1/1 2/2/1 528/528/1
f 1/1/1 528/528/1 527/527/1
f 2/2/1 3/3/1 529/529/1
f 2/2/1 529/529/1 528/528/1
f 3/3/1 4/4/1 530/530/1
f 3/3/1 530/530/1 529/529/1
f 4/4/1 5/5/1 531/531/1
f 4/4/1 531/531/1 530/530/1
f 5/5/1 6/6/1 532/532/1
f 5/5/1 532/532/1 531/531/1
f 6/6/1 7/7/1 533/533/1
f 6/6/1 533/533/1 532/532/1
f 7/7/1 8/8/1 534/534/1
f 7/7/1 534/534/1 533/533/1
f 8/8/1 9/9/1 535/535/1
f 8/8/1 535/535/1 534/534/1
f 9/9/1 10/10/1 536/536/1
f 9/9/1 536/536/1 535/535/1
f 10/10/1 11/11/1 537/537/1
f 10/10/1 537/537/1 536/536/1
f 11/11/1 12/12/1 538/538/1
f 11/11/1 538/538/1 537/537/1
f 12/12/1 13/13/1 539/539/1
f 12/12/1 539/539/1 538/538/1
f 13/13/1 14/14/1 540/540/1
f 13/13/1 540/540/1 539/539/1
f 14/14/1 15/15/1 541/541/1
f 14/14/1 541/541/1 540/540/1
f 15/15/1 16/16/1 542/542/1
f 15/15/1 542/542/1 541/541/1
f 16/16/1 17/17/1 543/543/1
f 16/16/1 543/543/1 542/542/1
f 17/17/1 18/18/1 544/544/1
f 17/17/1 544/544/1 543/543/1
f 18/18/1 19/19/1 545/545/1
f 18/18/1 545/545/1 544/544/1
f 19/19/1 20/20/1 546/546/1
f 19/19/1 546/546/1 545/545/1
f 20/20/1 21/21/1 547/547/1
f 20/20/1 547/547/1 546/546/1
f 21/21/1 22/22/1 548/548/1
f 21/21/1 548/548/1 547/547/1
f 22/22/1 23/23/1 549/549/1
f 22/22/1 549/549/1 548/548/1
f 23/23/1 24/24/1 550/550/1
f 23/23/1 550/550/1 549/549/1
f 24/24/1 25/25/1 551/551/1
f 24/24/1 551/551/1 550/550/1
f 25/25/1 26/26/1 552/552/1
f 25/25/1 552/552/1 551/551/1
f 26/26/1 27/27/1 553/553/1
f 26/26/1 553/553/1 552/552/1
f 27/27/1 28/28/1 554/554/1
f 27/27/1 554/554/1 553/553/1
f 28/28/1 29/29/1 555/555/1
f 28/28/1 555/555/1 554/554/1
f 29/29/1 30/30/1 556/556/1
f 29/29/1 556/556/1 555/555/1
f 30/30/1 31/31/1 557/557/1
f 30/30/1 557/557/1 556/556/1
f 31/31/1 32/32/1 558/558/1
f 31/31/1 558/558/1 557/557/1
f 32/32/1 33/33/1 559/559/1
f 32/32/1 559/559/1 558/558/1
f 33/33/1 34/34/1 560/560/1
f 33/33/1 560/560/1 559/559/1
f 34/34/1 35/35/1 561/561/1
f 34/34/1 561/561/1 560/560/1
f 35/35/1 36/36/1 562/562/1
f 35/35/1 562/562/1 561/561/1
f 36/36/1 37/37/1 563/563/1
f 36/36/1 563/563/1 562/562/1
f 37/37/1 38/38/1 564/564/1
f 37/37/1 564/564/1 563/563/1
f 38/38/1 39/39/1 565/565/1
f 38/38/1 565/565/1 564/564/1
f 39/39/1 40/40/1 566/566/1
f 39/39/1 566/566/1 565/565/1
f 40/40/1 41/41/1 567/567/1
f 40/40/1 567/567/1 566/566/1
f 41/41/1 42/42/1 568/568/1
f 41/41/1 568/568/1 567/567/1
f 42/42/1 43/43/1 569/569/1
f 42/42/1 569/569/1 568/568/1
f 43/43/1 44/44/1 570/570/1
f 43/43/1 570/570/1 569/569/1
f 44/44/1 45/45/1 571/571/1
f 44/44/1 571/571/1 570/570/1
f 45/45/1 46/46/1 572/572/1
f 45/45/1 572/572/1 571/571/1
f 46/46/1 47/47/1 573/573/1
f 46/46/1 573/573/1 572/572/1
f 47/47/1 48/48/1 574/574/1
f 47/47/1 574/574/1 573/573/1
f 48/48/1 49/49/1 575/575/1
f 48/48/1 575/575/1 574/574/1
f 49/49/1 50/50/1 576/576/1
f 49/49/1 576/576/1 575/575/1
f 50/50/1 51/51/1 577/577/1
f 50/50/1 577/577/1 576/576/1
f 51/51/1 52/52/1 578/578/1
f 51/51/1 578/578/1 577/577/1
f 52/52/1 53/53/1 579/579/1
f 52/52/1 579/579/1 578/578/1
f 53/53/1 54/54/1 580/580/1
f 53/53/1 580/580/1 579/579/1
f 54/54/1 55/55/1 581/581/1
f 54/54/1 581/581/1 580/580/1
f 55/55/1 56/56/1 582/582/1
f 55/55/1 582/582/1 581/581/1
f 56/56/1 57/57/1 583/583/1
f 56/56/1 583/583/1 582/582/1
f 57/57/1 58/58/1 584/584/1
f 57/57/1 584/584/1 583/583/1
f 58/58/1 59/59/1 585/585/1
f 58/58/1 585/585/1 584/584/1
f 59/59/1 60/60/1 586/586/1
f 59/59/1 586/586/1 585/585/1
f 60/60/1 61/61/1 587/587/1
f 60/60/1 587/587/1 586/586/1
f 61/61/1 62/62/1 588/588/1
f 61/61/1 588/588/1 587/587/1
f 62/62/1 63/63/1 589/589/1
f 62/62/1 589/589/1 588/588/1
f 63/63/1 64/64/1 590/590/1
f 63/63/1 590/590/1 589/589/1
f 64/64/1 65/65/1 591/591/1
f 64/64/1 591/591/1 590/590/1
f 65/65/1 66/66/1 592/592/1
f 65/65/1 592/592/1 591/591/1
f 66/66/1 67/67/1 593/593/1
f 66/66/1 593/593/1 592/592/1
f 67/67/1 68/68/1 594/594/1
f 67/67/1 594/594/1 593/593/1
f 68/68/1 69/69/1 595/595/1
f 68/68/1 595/595/1 594/594/1
f 69/69/1 70/70/1 596/596/1
f 69/69/1 596/596/1 595/595/1
f 70/70/1 71/71/1 597/597/1
f 70/70/1 597/597/1 596/596/1
f 71/71/1 72/72/1 598/598/1
f 71/71/1 598/598/1 597/597/1
f 72/72/1 73/73/1 599/599/1
f 72/72/1 599/599/1 598/598/1
f 73/73/1 74/74/1 600/600/1
f 73/73/1 600/600/1 599/599/1
f 74/74/1 75/75/1 601/601/1
f 74/74/1 601/601/1 600/600/1
f 75/75/1 76/76/1 602/602/1
f 75/75/1 602/602/1 601/601/1
f 76/76/1 77/77/1 603/603/1
f 76/76/1 603/603/1 602/602/1
f 77/77/1 78/78/1 604/604/1
f 77/77/1 604/604/1 603/603/1
f 78/78/1 79/79/1 605/605/1
f 78/78/1 605/605/1 604/604/1
f 79/79/1 80/80/1 606/606/1
f 79/79/1 606/606/1 605/605/1
f 80/80/1 81/81/1 607/607/1
f 80/80/1 607/607/1 606/606/1
f 81/81/1 82/82/1 608/608/1
f 81/81/1 608/608/1 607/607/1
f 82/82/1 83/83/1 609/609/1
f 82/82/1 609/609/1 608/608/1
f 83/83/1 84/84/1 610/610/1
f 83/83/1 610/610/1 609/609/1
f 84/84/1 85/85/1 611/611/1
f 84/84/1 611/611/1 610/610/1
f 85/85/1 86/86/1 612/612/1
f 85/85/1 612/612/1 611/611/1
f 86/86/1 87/87/1 613/613/1
f 86/86/1 613/613/1 612/612/1
f 87/87/1 88/88/1 614/614/1
f 87/87/1 614/614/1 613/613/1
f 88/88/1 89/89/1 615/615/1
f 88/88/1 615/615/1 614/614/1
f 89/89/1 90/90/1 616/616/1
f 89/89/1 616/616/1 615/615/1
f 90/90/1 91/91/1 617/617/1
f 90/90/1 617/617/1 616/616/1
f 91/91/1 92/92/1 618/618/1
f 91/91/1 618/618/1 617/617/1
f 92/92/1 93/93/1 619/619/1
f 92/92/1 619/619/1 618/618/1
f 93/93/1 94/94/1 620/620/1
f 93/93/1 620/620/1 619/619/1
f 94/94/1 95/95/1 621/621/1
f 94/94/1 621/621/1 620/620/1
f 95/95/1 96/96/1 622/622/1
f 95/95/1 622/622/1 621/621/1
f 96/96/1 97/97/1 623/623/1
f 96/96/1 623/623/1 622/622/1
f 97/97/1 98/98/1 624/624/1
f 97/97/1 624/624/1 623/623/1
f 98/98/1 99/99/1 625/625/1
f 98/98/1 625/625/1 624/624/1
f 99/99/1 100/100/1 626/626/1
f 99/99/1 626/626/1 625/625/1
f 100/100/1 101/101/1 627/627/1
f 100/100/1 627/627/1 626/626/1
f 101/101/1 102/102/1 628/628/1
f 101/101/1 628/628/1 627/627/1
f 102/102/1 103/103/1 629/629/1
f 102/102/1 629/629/1 628/628/1
f 103/103/1 104/104/1 630/630/1
f 103/103/1 630/630/1 629/629/1
f 104/104/1 105/105/1 631/631/1
f 104/104/1 631/631/1 630/630/1
f 105/105/1 106/106/1 632/632/1
f 105/105/1 632/632/1 631/631/1
f 106/106/1 107/107/1 633/633/1
f 106/106/1 633/633/1 632/632/1
f 107/107/1 108/108/1 634/634/1
f 107/107/1 634/634/1 633/633/1
f 108/108/1 109/109/1 635/635/1
f 108/108/1 635/635/1 634/634/1
f 109/109/1 110/110/1 636/636/1
f 109/109/1 636/636/1 635/635/1
f 110/110/1 111/111/1 637/637/1
f 110/110/1 637/637/1 636/636/1
f 111/111/1 112/112/1 638/638/1
f 111/111/1 638/638/1 637/637/1
f 112/112/1 113/113/1 639/639/1
f 112/112/1 639/639/1 638/638/1
f 113/113/1 114/114/1 640/640/1
f 113/113/1 640/640/1 639/639/1
f 114/114/1 115/115/1 641/641/1
f 114/114/1 641/641/1 640/640/1
f 115/115/1 116/116/1 642/642/1
f 115/115/1 642/642/1 641/641/1
f 116/116/1 117/117/1 643/643/1
f 116/116/1 643/643/1 642/642/1
f 117/117/1 118/118/1 644/644/1
f 117/117/1 644/644/1 643/643/1
f 118/118/1 119/119/1 645/645/1
f 118/118/1 645/645/1 644/644/1
f 119/119/1 120/120/1 646/646/1
f 119/119/1 646/646/1 645/645/1
f 120/120/1 121/121/1 647/647/1
f 120/120/1 647/647/1 646/646/1
f 121/121/1 122/122/1 648/648/1
f 121/121/1 648/648/1 647/647/1
f 122/122/1 123/123/1 649/649/1
f 122/122/1 649/649/1 648/648/1
f 123/123/1 124/124/1 650/650/1
f 123/123/1 650/650/1 649/649/1
f 124/124/1 125/125/1 651/651/1
f 124/124/1 651/651/1 650/650/1
f 125/125/1 126/126/1 652/652/1
f 125/125/1 652/652/1 651/651/1
f 126/126/1 127/127/1 653/653/1
f 126/126/1 653/653/1 652/652/1
f 127/127/1 128/128/1 654/654/1
f 127/127/1 654/654/1 653/653/1
f 128/128/1 129/129/1 655/655/1
f 128/128/1 655/655/1 654/654/1
f 129/129/1 130/130/1 656/656/1
f 129/129/1 656/656/1 655/655/1
f 130/130/1 131/131/1 657/657/1
f 130/130/1 657/657/1 656/656/1
f 131/131/1 132/132/1 658/658/1
f 131/131/1 658/658/1 657/657/1
f 132/132/1 133/133/1 659/659/1
f 132/132/1 659/659/1 658/658/1
f 133/133/1 134/134/1 660/660/1
f 133/133/1 660/660/1 659/659/1
f 134/134/1 135/135/1 661/661/1
f 134/134/1 661/661/1 660/660/1
f 135/135/1 136/136/1 662/662/1
f 135/135/1 662/662/1 661/661/1
f 136/136/1 137/137/1 663/663/1
f 136/136/1 663/663/1 662/662/1
f 137/137/1 138/138/1 664/664/1
f 137/137/1 664/664/1 663/663/1
f 138/138/1 139/139/1 665/665/1
f 138/138/1 665/665/1 664/664/1
f 139/139/1 140/140/1 666/666/1
f 139/139/1 666/666/1 665/665/1
f 140/140/1 141/141/1 667/667/1
f 140/140/1 667/667/1 666/666/1
f 141/141/1 142/142/1 668/668/1
f 141/141/1 668/668/1 667/667/1
f 142/142/1 143/143/1 669/669/1
f 142/142/1 669/669/1 668/668/1
f 143/143/1 144/144/1 670/670/1
f 143/143/1 670/670/1 669/669/1
f 144/144/1 145/145/1 671/671/1
f 144/144/1 671/671/1 670/670/1
f 145/145/1 146/146/1 672/672/1
f 145/145/1 672/672/1 671/671/1
f 146/146/1 147/147/1 673/673/1
f 146/146/1 673/673/1 672/672/1
f 147/147/1 148/148/1 674/674/1
f 147/147/1 674/674/1 673/673/1
f 148/148/1 149/149/1 675/675/1
f 148/148/1 675/675/1 674/674/1
f 149/149/1 150/150/1 676/676/1
f 149/149/1 676/676/1 675/675/1
f 150/150/1 151/151/1 677/677/1
f 150/150/1 677/677/1 676/676/1
f 151/151/1 152/152/1 678/678/1
f 151/151/1 678/678/1 677/677/1
f 152/152/1 153/153/1 679/679/1
f 152/152/1 679/679/1 678/678/1
f 153/153/1 154/154/1 680/680/1
f 153/153/1 680/680/1 679/679/1
f 154/154/1 155/155/1 681/681/1
f 154/154/1 681/681/1 680/680/1
f 155/155/1 156/156/1 682/682/1
f 155/155/1 682/682/1 681/681/1
f 156/156/1 157/157/1 683/683/1
f 156/156/1 683/683/1 682/682/1
f 157/157/1 158/158/1 684/684/1
f 157/157/1 684/684/1 683/683/1
f 158/158/1 159/159/1 685/685/1
f 158/158/1 685/685/1 684/684/1
f 159/159/1 160/160/1 686/686/1
f 159/159/1 686/686/1 685/685/1
f 160/160/1 161/161/1 687/687/1
f 160/160/1 687/687/1 686/686/1
f 161/161/1 162/162/1 688/688/1
f 161/161/1 688/688/1 687/687/1
f 162/162/1 163/163/1 689/689/1
f 162/162/1 689/689/1 688/688/1
f 163/163/1 164/164/1 690/690/1
f 163/163/1 690/690/1 689/689/1
f 164/164/1 165/165/1 691/691/1
f 164/164/1 691/691/1 690/690/1
f 165/165/1 166/166/1 692/692/1
f 165/165/1 692/692/1 691/691/1
f 166/166/1 167/167/1 693/693/1
f 166/166/1 693/693/1 692/692/1
f 167/167/1 168/168/1 694/694/1
f 167/167/1 694/694/1 693/693/1
f 168/168/1 169/169/1 695/695/1
f 168/168/1 695/695/1 694/694/1
f 169/169/1 170/170/1 696/696/1
f 169/169/1 696/696/1 695/695/1
f 170/170/1 171/171/1 697/697/1
f 170/170/1 697/697/1 696/696/1
f 171/171/1 172/172/1 698/698/1
f 171/171/1 698/698/1 697/697/1
f 172/172/1 173/173/1 699/699/1
f 172/172/1 699/699/1 698/698/1
f 173/173/1 174/174/1 700/700/1
f 173/173/1 700/700/1 699/699/1
f 174/174/1 175/175/1 701/701/1
f 174/174/1 701/701/1 700/700/1
f 175/175/1 176/176/1 702/702/1
f 175/175/1 702/702/1 701/701/1
f 176/176/1 177/177/1 703/703/1
f 176/176/1 703/703/1 702/702/1
f 177/177/1 178/178/1 704/704/1
f 177/177/1 704/704/1 703/703/1
f 178/178/1 179/179/1 705/705/1
f 178/178/1 705/705/1 704/704/1
f 179/179/1 180/180/1 706/706/1
f 179/179/1 706/706/1 705/705/1
f 180/180/1 181/181/1 707/707/1
f 180/180/1 707/707/1 706/706/1
f 181/181/1 182/182/1 708/708/1
f 181/181/1 708/708/1 707/707/1
f 182/182/1 183/183/1 709/709/1
f 182/182/1 709/709/1 708/708/1
f 183/183/1 184/184/1 710/710/1
f 183/183/1 710/710/1 709/709/1
f 184/184/1 185/185/1 711/711/1
f 184/184/1 711/711/1 710/710/1
f 185/185/1 186/186/1 712/712/1
f 185/185/1 712/712/1 711/711/1
f 186/186/1 187/187/1 713/713/1
f 186/186/1 713/713/1 712/712/1
f 187/187/1 188/188/1 714/714/1
f 187/187/1 714/714/1 713/713/1
f 188/188/1 189/189/1 715/715/1
f 188/188/1 715/715/1 714/714/1
f 189/189/1 190/190/1 716/716/1
f 189/189/1 716/716/1 715/715/1
f 190/190/1 191/191/1 717/717/1
f 190/190/1 717/717/1 716/716/1
f 191/191/1 192/192/1 718/718/1
f 191/191/1 718/718/1 717/717/1
f 192/192/1 193/193/1 719/719/1
f 192/192/1 719/719/1 718/718/1
f 193/193/1 194/194/1 720/720/1
f 193/193/1 720/720/1 719/719/1
f 194/194/1 195/195/1 721/721/1
f 194/194/1 721/721/1 720/720/1
f 195/195/1 196/196/1 722/722/1
f 195/195/1 722/722/1 721/721/1
f 196/196/1 197/197/1 723/723/1
f 196/196/1 723/723/1 722/722/1
f 197/197/1 198/198/1 724/724/1
f 197/197/1 724/724/1 723/723/1
f 198/198/1 199/199/1 725/725/1
f 198/198/1 725/725/1 724/724/1
f 199/199/1 200/200/1 726/726/1
f 199/199/1 726/726/1 725/725/1
f 200/200/1 201/201/1 727/727/1
f 200/200/1 727/727/1 726/726/1
f 201/201/1 202/202/1 728/728/1
f 201/201/1 728/728/1 727/727/1
f 202/202/1 203/203/1 729/729/1
f 202/202/1 729/729/1 728/728/1
f 203/203/1 204/204/1 730/730/1
f 203/203/1 730/730/1 729/729/1
f 204/204/1 205/205/1 731/731/1
f 204/204/1 731/731/1 730/730/1
f 205/205/1 206/206/1 732/732/1
f 205/205/1 732/732/1 731/731/1
f 206/206/1 207/207/1 733/733/1
f 206/206/1 733/733/1 732/732/1
f 207/207/1 208/208/1 734/734/1
f 207/207/1 734/734/1 733/733/1
f 208/208/1 209/209/1 735/735/1
f 208/208/1 735/735/1 734/734/1
f 209/209/1 210/210/1 736/736/1
f 209/209/1 736/736/1 735/735/1
f 210/210/1 211/211/1 737/737/1
f 210/210/1 737/737/1 736/736/1
f 211/211/1 212/212/1 738/738/1
f 211/211/1 738/738/1 737/737/1
f 212/212/1 213/213/1 739/739/1
f 212/212/1 739/739/1 738/738/1
f 213/213/1 214/214/1 740/740/1
f 213/213/1 740/740/1 739/739/1
f 214/214/1 215/215/1 741/741/1
f 214/214/1 741/741/1 740/740/1
f 215/215/1 216/216/1 742/742/1
f 215/215/1 742/742/1 741/741/1
f 216/216/1 217/217/1 743/743/1
f 216/216/1 743/743/1 742/742/1
f 217/217/1 218/218/1 744/744/1
f 217/217/1 744/744/1 743/743/1
f 218/218/1 219/219/1 745/745/1
f 218/218/1 745/745/1 744/744/1
f 219/219/1 220/220/1 746/746/1
f 219/219/1 746/746/1 745/745/1
f 220/220/1 221/221/1 747/747/1
f 220/220/1 747/747/1 746/746/1
f 221/221/1 222/222/1 748/748/1
f 221/221/1 748/748/1 747/747/1
f 222/222/1 223/223/1 749/749/1
f 222/222/1 749/749/1 748/748/1
f 223/223/1 224/224/1 750/750/1
f 223/223/1 750/750/1 749/749/1
f 224/224/1 225/225/1 751/751/1
f 224/224/1 751/751/1 750/750/1
f 225/225/1 226/226/1 752/752/1
f 225/225/1 752/752/1 751/751/1
f 226/226/1 227/227/1 753/753/1
f 226/226/1 753/753/1 752/752/1
f 227/227/1 228/228/1 754/754/1
f 227/227/1 754/754/1 753/753/1
f 228/228/1 229/229/1 755/755/1
f 228/228/1 755/755/1 754/754/1
f 229/229/1 230/230/1 756/756/1
f 229/229/1 756/756/1 755/755/1
f 230/230/1 231/231/1 757/757/1
f 230/230/1 757/757/1 756/756/1
f 231/231/1 232/232/1 758/758/1
f 231/231/1 758/758/1 757/757/1
f 232/232/1 233/233/1 759/759/1
f 232/232/1 759/759/1 758/758/1
f 233/233/1 234/234/1 760/760/1
f 233/233/1 760/760/1 759/759/1
f 234/234/1 235/235/1 761/761/1
f 234/234/1 761/761/1 760/760/1
f 235/235/1 236/236/1 762/762/1
f 235/235/1 762/762/1 761/761/1
f 236/236/1 237/237/1 763/763/1
f 236/236/1 763/763/1 762/762/1
f 237/237/1 238/238/1 764/764/1
f 237/237/1 764/764/1 763/763/1
f 238/238/1 239/239/1 765/765/1
f 238/238/1 765/765/1 764/764/1
f 239/239/1 240/240/1 766/766/1
f 239/239/1 766/766/1 765/765/1
f 240/240/1 241/241/1 767/767/1
f 240/240/1 767/767/1 766/766/1
f 241/241/1 242/242/1 768/768/1
f 241/241/1 768/768/1 767/767/1
f 242/242/1 243/243/1 769/769/1
f 242/242/1 769/769/1 768/768/1
f 243/243/1 244/244/1 770/770/1
f 243/243/1 770/770/1 769/769/1
f 244/244/1 245/245/1 771/771/1
f 244/244/1 771/771/1 770/770/1
f 245/245/1 246/246/1 772/772/1
f 245/245/1 772/772/1 771/771/1
f 246/246/1 247/247/1 773/773/1
f 246/246/1 773/773/1 772/772/1
f 247/247/1 248/248/1 774/774/1
f 247/247/1 774/774/1 773/773/1
f 248/248/1 249/249/1 775/775/1
f 248/248/1 775/775/1 774/774/1
f 249/249/1 250/250/1 776/776/1
f 249/249/1 776/776/1 775/775/1
f 250/250/1 251/251/1 777/777/1
f 250/250/1 777/777/1 776/776/1
f 251/251/1 252/252/1 778/778/1
f 251/251/1 778/778/1 777/777/1
f 252/252/1 253/253/1 779/779/1
f 252/252/1 779/779/1 778/778/1
f 253/253/1 254/254/1 780/780/1
f 253/253/1 780/780/1 779/779/1
f 254/254/1 255/255/1 781/781/1
f 254/254/1 781/781/1 780/780/1
f 255/255/1 256/256/1 782/782/1
f 255/255/1 782/782/1 781/781/1
f 256/256/1 257/257/1 783/783/1
f 256/256/1 783/783/1 782/782/1
f 257/257/1 258/258/1 784/784/1
f 257/257/1 784/784/1 783/783/1
f 258/258/1 259/259/1 785/785/1
f 258/258/1 785/785/1 784/784/1
f 259/259/1 260/260/1 786/786/1
f 259/259/1 786/786/1 785/785/1
f 260/260/1 261/261/1 787/787/1
f 260/260/1 787/787/1 786/786/1
f 261/261/1 262/262/1 788/788/1
f 261/261/1 788/788/1 787/787/1
f 262/262/1 263/263/1 789/789/1
f 262/262/1 789/789/1 788/788/1
f 263/263/1 264/264/1 790/790/1
f 263/263/1 790/790/1 789/789/1
f 264/264/1 265/265/1 791/791/1
f 264/264/1 791/791/1 790/790/1
f 265/265/1 266/266/1 792/792/1
f 265/265/1 792/792/1 791/791/1
f 266/266/1 267/267/1 793/793/1
f 266/266/1 793/793/1 792/792/1
f 267/267/1 268/268/1 794/794/1
f 267/267/1 794/794/1 793/793/1
f 268/268/1 269/269/1 795/795/1
f 268/268/1 795/795/1 794/794/1
f 269/269/1 270/270/1 796/796/1
f 269/269/1 796/796/1 795/795/1
f 270/270/1 271/271/1 797/797/1
f 270/270/1 797/797/1 796/796/1
f 271/271/1 272/272/1 798/798/1
f 271/271/1 798/798/1 797/797/1
f 272/272/1 273/273/1 799/799/1
f 272/272/1 799/799/1 798/798/1
f 273/273/1 274/274/1 800/800/1
f 273/273/1 800/800/1 799/799/1
f 274/274/1 275/275/1 801/801/1
f 274/274/1 801/801/1 800/800/1
f 275/275/1 276/276/1 802/802/1
f 275/275/1 802/802/1 801/801/1
f 276/276/1 277/277/1 803/803/1
f 276/276/1 803/803/1 802/802/1
f 277/277/1 278/278/1 804/804/1
f 277/277/1 804/804/1 803/803/1
f 278/278/1 279/279/1 805/805/1
f 278/278/1 805/805/1 804/804/1
f 279/279/1 280/280/1 806/806/1
f 279/279/1 806/806/1 805/805/1
f 280/280/1 281/281/1 807/807/1
f 280/280/1 807/807/1 806/806/1
f 281/281/1 282/282/1 808/808/1
f 281/281/1 808/808/1 807/807/1
f 282/282/1 283/283/1 809/809/1
f 282/282/1 809/809/1 808/808/1
f 283/283/1 284/284/1 810/810/1
f 283/283/1 810/810/1 809/809/1
f 284/284/1 285/285/1 811/811/1
f 284/284/1 811/811/1 810/810/1
f 285/285/1 286/286/1 812/812/1
f 285/285/1 812/812/1 811/811/1
f 286/286/1 287/287/1 813/813/1
f 286/286/1 813/813/1 812/812/1
f 287/287/1 288/288/1 814/814/1
f 287/287/1 814/814/1 813/813/1
f 288/288/1 289/289/1 815/815/1
f 288/288/1 815/815/1 814/814/1
f 289/289/1 290/290/1 816/816/1
f 289/289/1 816/816/1 815/815/1
f 290/290/1 291/291/1 817/817/1
f 290/290/1 817/817/1 816/816/1
f 291/291/1 292/292/1 818/818/1
f 291/291/1 818/818/1 817/817/1
f 292/292/1 293/293/1 819/819/1
f 292/292/1 819/819/1 818/818/1
f 293/293/1 294/294/1 820/820/1
f 293/293/1 820/820/1 819/819/1
f 294/294/1 295/295/1 821/821/1
f 294/294/1 821/821/1 820/820/1
f 295/295/1 296/296/1 822/822/1
f 295/295/1 822/822/1 821/821/1
f 296/296/1 297/297/1 823/823/1
f 296/296/1 823/823/1 822/822/1
f 297/297/1 298/298/1 824/824/1
f 297/297/1 824/824/1 823/823/1
f 298/298/1 299/299/1 825/825/1
f 298/298/1 825/825/1 824/824/1
f 299/299/1 300/300/1 826/826/1
f 299/299/1 826/826/1 825/825/1
f 300/300/1 301/301/1 827/827/1
f 300/300/1 827/827/1 826/826/1
f 301/301/1 302/302/1 828/828/1
f 301/301/1 828/828/1 827/827/1
f 302/302/1 303/303/1 829/829/1
f 302/302/1 829/829/1 828/828/1
f 303/303/1 304/304/1 830/830/1
f 303/303/1 830/830/1 829/829/1
f 304/304/1 305/305/1 831/831/1
f 304/304/1 831/831/1 830/830/1
f 305/305/1 306/306/1 832/832/1
f 305/305/1 832/832/1 831/831/1
f 306/306/1 307/307/1 833/833/1
f 306/306/1 833/833/1 832/832/1
f 307/307/1 308/308/1 834/834/1
f 307/307/1 834/834/1 833/833/1
f 308/308/1 309/309/1 835/835/1
f 308/308/1 835/835/1 834/834/1
f 309/309/1 310/310/1 836/836/1
f 309/309/1 836/836/1 835/835/1
f 310/310/1 311/311/1 837/837/1
f 310/310/1 837/837/1 836/836/1
f 311/311/1 312/312/1 838/838/1
f 311/311/1 838/838/1 837/837/1
f 312/312/1 313/313/1 839/839/1
f 312/312/1 839/839/1 838/838/1
f 313/313/1 314/314/1 840/840/1
f 313/313/1 840/840/1 839/839/1
f 314/314/1 315/315/1 841/841/1
f 314/314/1 841/841/1 840/840/1
f 315/315/1 316/316/1 842/842/1
f 315/315/1 842/842/1 841/841/1
f 316/316/1 317/317/1 843/843/1
f 316/316/1 843/843/1 842/842/1
f 317/317/1 318/318/1 844/844/1
f 317/317/1 844/844/1 843/843/1
f 318/318/1 319/319/1 845/845/1
f 318/318/1 845/845/1 844/844/1
f 319/319/1 320/320/1 846/846/1
f 319/319/1 846/846/1 845/845/1
f 320/320/1 321/321/1 847/847/1
f 320/320/1 847/847/1 846/846/1
f 321/321/1 322/322/1 848/848/1
f 321/321/1 848/848/1 847/847/1
f 322/322/1 323/323/1 849/849/1
f 322/322/1 849/849/1 848/848/1
f 323/323/1 324/324/1 850/850/1
f 323/323/1 850/850/1 849/849/1
f 324/324/1 325/325/1 851/851/1
f 324/324/1 851/851/1 850/850/1
f 325/325/1 326/326/1 852/852/1
f 325/325/1 852/852/1 851/851/1
f 326/326/1 327/327/1 853/853/1
f 326/326/1 853/853/1 852/852/1
f 327/327/1 328/328/1 854/854/1
f 327/327/1 854/854/1 853/853/1
f 328/328/1 329/329/1 855/855/1
f 328/328/1 855/855/1 854/854/1
f 329/329/1 330/330/1 856/856/1
f 329/329/1 856/856/1 855/855/1
f 330/330/1 331/331/1 857/857/1
f 330/330/1 857/857/1 856/856/1
f 331/331/1 332/332/1 858/858/1
f 331/331/1 858/858/1 857/857/1
f 332/332/1 333/333/1 859/859/1
f 332/332/1 859/859/1 858/858/1
f 333/333/1 334/334/1 860/860/1
f 333/333/1 860/860/1 859/859/1
f 334/334/1 335/335/1 861/861/1
f 334/334/1 861/861/1 860/860/1
f 335/335/1 336/336/1 862/862/1
f 335/335/1 862/862/1 861/861/1
f 336/336/1 337/337/1 863/863/1
f 336/336/1 863/863/1 862/862/1
f 337/337/1 338/338/1 864/864/1
f 337/337/1 864/864/1 863/863/1
f 338/338/1 339/339/1 865/865/1
f 338/338/1 865/865/1 864/864/1
f 339/339/1 340/340/1 866/866/1
f 339/339/1 866/866/1 865/865/1
f 340/340/1 341/341/1 867/867/1
f 340/340/1 867/867/1 866/866/1
f 341/341/1 342/342/1 868/868/1
f 341/341/1 868/868/1 867/867/1
f 342/342/1 343/343/1 869/869/1
f 342/342/1 869/869/1 868/868/1
f 343/343/1 344/344/1 870/870/1
f 343/343/1 870/870/1 869/869/1
f 344/344/1 345/345/1 871/871/1
f 344/344/1 871/871/1 870/870/1
f 345/345/1 346/346/1 872/872/1
f 345/345/1 872/872/1 871/871/1
f 346/346/1 347/347/1 873/873/1
f 346/346/1 873/873/1 872/872/1
f 347/347/1 348/348/1 874/874/1
f 347/347/1 874/874/1 873/873/1
f 348/348/1 349/349/1 875/875/1
f 348/348/1 875/875/1 874/874/1
f 349/349/1 350/350/1 876/876/1
f 349/349/1 876/876/1 875/875/1
f 350/350/1 351/351/1 877/877/1
f 350/350/1 877/877/1 876/876/1
f 351/351/1 352/352/1 878/878/1
f 351/351/1 878/878/1 877/877/1
f 352/352/1 353/353/1 879/879/1
f 352/352/1 879/879/1 878/878/1
f 353/353/1 354/354/1 880/880/1
f 353/353/1 880/880/1 879/879/1
f 354/354/1 355/355/1 881/881/1
f 354/354/1 881/881/1 880/880/1
f 355/355/1 356/356/1 882/882/1
f 355/355/1 882/882/1 881/881/1
f 356/356/1 357/357/1 883/883/1
f 356/356/1 883/883/1 882/882/1
f 357/357/1 358/358/1 884/884/1
f 357/357/1 884/884/1 883/883/1
f 358/358/1 359/359/1 885/885/1
f 358/358/1 885/885/1 884/884/1
f 359/359/1 360/360/1 886/886/1
f 359/359/1 886/886/1 885/885/1
f 360/360/1 361/361/1 887/887/1
f 360/360/1 887/887/1 886/886/1
f 361/361/1 362/362/1 888/888/1
f 361/361/1 888/888/1 887/887/1
f 362/362/1 363/363/1 889/889/1
f 362/362/1 889/889/1 888/888/1
f 363/363/1 364/364/1 890/890/1
f 363/363/1 890/890/1 889/889/1
f 364/364/1 365/365/1 891/891/1
f 364/364/1 891/891/1 890/890/1
f 365/365/1 366/366/1 892/892/1
f 365/365/1 892/892/1 891/891/1
f 366/366/1 367/367/1 893/893/1
f 366/366/1 893/893/1 892/892/1
f 367/367/1 368/368/1 894/894/1
f 367/367/1 894/894/1 893/893/1
f 368/368/1 369/369/1 895/895/1
f 368/368/1 895/895/1 894/894/1
f 369/369/1 370/370/1 896/896/1
f 369/369/1 896/896/1 895/895/1
f 370/370/1 371/371/1 897/897/1
f 370/370/1 897/897/1 896/896/1
f 371/371/1 372/372/1 898/898/1
f 371/371/1 898/898/1 897/897/1
f 372/372/1 373/373/1 899/899/1
f 372/372/1 899/899/1 898/898/1
f 373/373/1 374/374/1 900/900/1
f 373/373/1 900/900/1 899/899/1
f 374/374/1 375/375/1 901/901/1
f 374/374/1 901/901/1 900/900/1
f 375/375/1 376/376/1 902/902/1
f 375/375/1 902/902/1 901/901/1
f 376/376/1 377/377/1 903/903/1
f 376/376/1 903/903/1 902/902/1
f 377/377/1 378/378/1 904/904/1
f 377/377/1 904/904/1 903/903/1
f 378/378/1 379/379/1 905/905/1
f 378/378/1 905/905/1 904/904/1
f 379/379/1 380/380/1 906/906/1
f 379/379/1 906/906/1 905/905/1
f 380/380/1 381/381/1 907/907/1
f 380/380/1 907/907/1 906/906/1
f 381/381/1 382/382/1 908/908/1
f 381/381/1 908/908/1 907/907/1
f 382/382/1 383/383/1 909/909/1
f 382/382/1 909/909/1 908/908/1
f 383/383/1 384/384/1 910/910/1
f 383/383/1 910/910/1 909/909/1
f 384/384/1 385/385/1 911/911/1
f 384/384/1 911/911/1 910/910/1
f 385/385/1 386/386/1 912/912/1
f 385/385/1 912/912/1 911/911/1
f 386/386/1 387/387/1 913/913/1
f 386/386/1 913/913/1 912/912/1
f 387/387/1 388/388/1 914/914/1
f 387/387/1 914/914/1 913/913/1
f 388/388/1 389/389/1 915/915/1
f 388/388/1 915/915/1 914/914/1
f 389/389/1 390/390/1 916/916/1
f 389/389/1 916/916/1 915/915/1
f 390/390/1 391/391/1 917/917/1
f 390/390/1 917/917/1 916/916/1
f 391/391/1 392/392/1 918/918/1
f 391/391/1 918/918/1 917/917/1
f 392/392/1 393/393/1 919/919/1
f 392/392/1 919/919/1 918/918/1
f 393/393/1 394/394/1 920/920/1
f 393/393/1 920/920/1 919/919/1
f 394/394/1 395/395/1 921/921/1
f 394/394/1 921/921/1 920/920/1
f 395/395/1 396/396/1 922/922/1
f 395/395/1 922/922/1 921/921/1
f 396/396/1 397/397/1 923/923/1
f 396/396/1 923/923/1 922/922/1
f 397/397/1 398/398/1 924/924/1
f 397/397/1 924/924/1 923/923/1
f 398/398/1 399/399/1 925/925/1
f 398/398/1 925/925/1 924/924/1
f 399/399/1 400/400/1 926/926/1
f 399/399/1 926/926/1 925/925/1
f 400/400/1 401/401/1 927/927/1
f 400/400/1 927/927/1 926/926/1
f 401/401/1 402/402/1 928/928/1
f 401/401/1 928/928/1 927/927/1
f 402/402/1 403/403/1 929/929/1
f 402/402/1 929/929/1 928/928/1
f 403/403/1 404/404/1 930/930/1
f 403/403/1 930/930/1 929/929/1
f 404/404/1 405/405/1 931/931/1
f 404/404/1 931/931/1 930/930/1
f 405/405/1 406/406/1 932/932/1
f 405/405/1 932/932/1 931/931/1
f 406/406/1 407/407/1 933/933/1
f 406/406/1 933/933/1 932/932/1
f 407/407/1 408/408/1 934/934/1
f 407/407/1 934/934/1 933/933/1
f 408/408/1 409/409/1 935/935/1
f 408/408/1 935/935/1 934/934/1
f 409/409/1 410/410/1 936/936/1
f 409/409/1 936/936/1 935/935/1
f 410/410/1 411/411/1 937/937/1
f 410/410/1 937/937/1 936/936/1
f 411/411/1 412/412/1 938/938/1
f 411/411/1 938/938/1 937/937/1
f 412/412/1 413/413/1 939/939/1
f 412/412/1 939/939/1 938/938/1
f 413/413/1 414/414/1 940/940/1
f 413/413/1 940/940/1 939/939/1
f 414/414/1 415/415/1 941/941/1
f 414/414/1 941/941/1 940/940/1
f 415/415/1 416/416/1 942/942/1
f 415/415/1 942/942/1 941/941/1
f 416/416/1 417/417/1 943/943/1
f 416/416/1 943/943/1 942/942/1
f 417/417/1 418/418/1 944/944/1
f 417/417/1 944/944/1 943/943/1
f 418/418/1 419/419/1 945/945/1
f 418/418/1 945/945/1 944/944/1
f 419/419/1 420/420/1 946/946/1
f 419/419/1 946/946/1 945/945/1
f 420/420/1 421/421/1 947/947/1
f 420/420/1 947/947/1 946/946/1
f 421/421/1 422/422/1 948/948/1
f 421/421/1 948/948/1 947/947/1
f 422/422/1 423/423/1 949/949/1
f 422/422/1 949/949/1 948/948/1
f 423/423/1 424/424/1 950/950/1
f 423/423/1 950/950/1 949/949/1
f 424/424/1 425/425/1 951/951/1
f 424/424/1 951/951/1 950/950/1
f 425/425/1 426/426/1 952/952/1
f 425/425/1 952/952/1 951/951/1
f 426/426/1 427/427/1 953/953/1
f 426/426/1 953/953/1 952/952/1
f 427/427/1 428/428/1 954/954/1
f 427/427/1 954/954/1 953/953/1
f 428/428/1 429/429/1 955/955/1
f 428/428/1 955/955/1 954/954/1
f 429/429/1 430/430/1 956/956/1
f 429/429/1 956/956/1 955/955/1
f 430/430/1 431/431/1 957/957/1
f 430/430/1 957/957/1 956/956/1
f 431/431/1 432/432/1 958/958/1
f 431/431/1 958/958/1 957/957/1
f 432/432/1 433/433/1 959/959/1
f 432/432/1 959/959/1 958/958/1
f 433/433/1 434/434/1 960/960/1
f 433/433/1 960/960/1 959/959/1
f 434/434/1 435/435/1 961/961/1
f 434/434/1 961/961/1 960/960/1
f 435/435/1 436/436/1 962/962/1
f 435/435/1 962/962/1 961/961/1
f 436/436/1 437/437/1 963/963/1
f 436/436/1 963/963/1 962/962/1
f 437/437/1 438/438/1 964/964/1
f 437/437/1 964/964/1 963/963/1
f 438/438/1 439/439/1 965/965/1
f 438/438/1 965/965/1 964/964/1
f 439/439/1 440/440/1 966/966/1
f 439/439/1 966/966/1 965/965/1
f 440/440/1 441/441/1 967/967/1
f 440/440/1 967/967/1 966/966/1
f 441/441/1 442/442/1 968/968/1
f 441/441/1 968/968/1 967/967/1
f 442/442/1 443/443/1 969/969/1
f 442/442/1 969/969/1 968/968/1
f 443/443/1 444/444/1 970/970/1
f 443/443/1 970/970/1 969/969/1
f 444/444/1 445/445/1 971/971/1
f 444/444/1 971/971/1 970/970/1
f 445/445/1 446/446/1 972/972/1
f 445/445/1 972/972/1 971/971/1
f 446/446/1 447/447/1 973/973/1
f 446/446/1 973/973/1 972/972/1
f 447/447/1 448/448/1 974/974/1
f 447/447/1 974/974/1 973/973/1
f 448/448/1 449/449/1 975/975/1
f 448/448/1 975/975/1 974/974/1
f 449/449/1 450/450/1 976/976/1
f 449/449/1 976/976/1 975/975/1
f 450/450/1 451/451/1 977/977/1
f 450/450/1 977/977/1 976/976/1
f 451/451/1 452/452/1 978/978/1
f 451/451/1 978/978/1 977/977/1
f 452/452/1 453/453/1 979/979/1
f 452/452/1 979/979/1 978/978/1
f 453/453/1 454/454/1 980/980/1
f 453/453/1 980/980/1 979/979/1
f 454/454/1 455/455/1 981/981/1
f 454/454/1 981/981/1 980/980/1
f 455/455/1 456/456/1 982/982/1
f 455/455/1 982/982/1 981/981/1
f 456/456/1 457/457/1 983/983/1
f 456/456/1 983/983/1 982/982/1
f 457/457/1 458/458/1 984/984/1
f 457/457/1 984/984/1 983/983/1
f 458/458/1 459/459/1 985/985/1
f 458/458/1 985/985/1 984/984/1
f 459/459/1 460/460/1 986/986/1
f 459/459/1 986/986/1 985/985/1
f 460/460/1 461/461/1 987/987/1
f 460/460/1 987/987/1 986/986/1
f 461/461/1 462/462/1 988/988/1
f 461/461/1 988/988/1 987/987/1
f 462/462/1 463/463/1 989/989/1
f 462/462/1 989/989/1 988/988/1
f 463/463/1 464/464/1 990/990/1
f 463/463/1 990/990/1 989/989/1
f 464/464/1 465/465/1 991/991/1
f 464/464/1 991/991/1 990/990/1
f 465/465/1 466/466/1 992/992/1
f 465/465/1 992/992/1 991/991/1
f 466/466/1 467/467/1 993/993/1
f 466/466/1 993/993/1 992/992/1
f 467/467/1 468/468/1 994/994/1
f 467/467/1 994/994/1 993/993/1
f 468/468/1 469/469/1 995/995/1
f 468/468/1 995/995/1 994/994/1
f 469/469/1 470/470/1 996/996/1
f 469/469/1 996/996/1 995/995/1
f 470/470/1 471/471/1 997/997/1
f 470/470/1 997/997/1 996/996/1
f 471/471/1 472/472/1 998/998/1
f 471/471/1 998/998/1 997/997/1
f 472/472/1 473/473/1 999/999/1
f 472/472/1 999/999/1 998/998/1
f 473/473/1 474/474/1 1000/1000/1
f 473/473/1 1000/1000/1 999/999/1
f 474/474/1 475/475/1 1001/1001/1
f 474/474/1 1001/1001/1 1000/1000/1
f 475/475/1 476/476/1 1002/1002/1
f 475/475/1 1002/1002/1 1001/1001/1
f 476/476/1 477/477/1 1003/1003/1
f 476/476/1 1003/1003/1 1002/1002/1
f 477/477/1 478/478/1 1004/1004/1
f 477/477/1 1004/1004/1 1003/1003/1
f 478/478/1 479/479/1 1005/1005/1
f 478/478/1 1005/1005/1 1004/1004/1
f 479/479/1 480/480/1 1006/1006/1
f 479/479/1 1006/1006/1 1005/1005/1
f 480/480/1 481/481/1 1007/1007/1
f 480/480/1 1007/1007/1 1006/1006/1
f 481/481/1 482/482/1 1008/1008/1
f 481/481/1 1008/1008/1 1007/1007/1
f 482/482/1 483/483/1 1009/1009/1
f 482/482/1 1009/1009/1 1008/1008/1
f 483/483/1 484/484/1 1010/1010/1
f 483/483/1 1010/1010/1 1009/1009/1
f 484/484/1 485/485/1 1011/1011/1
f 484/484/1 1011/1011/1 1010/1010/1
f 485/485/1 486/486/1 1012/1012/1
f 485/485/1 1012/1012/1 1011/1011/1
f 486/486/1 487/487/1 1013/1013/1
f 486/486/1 1013/1013/1 1012/1012/1
f 487/487/1 488/488/1 1014/1014/1
f 487/487/1 1014/1014/1 1013/1013/1
f 488/488/1 489/489/1 1015/1015/1
f 488/488/1 1015/1015/1 1014/1014/1
f 489/489/1 490/490/1 1016/1016/1
f 489/489/1 1016/1016/1 1015/1015/1
f 490/490/1 491/491/1 1017/1017/1
f 490/490/1 1017/1017/1 1016/1016/1
f 491/491/1 492/492/1 1018/1018/1
f 491/491/1 1018/1018/1 1017/1017/1
f 492/492/1 493/493/1 1019/1019/1
f 492/492/1 1019/1019/1 1018/1018/1
f 493/493/1 494/494/1 1020/1020/1
f 493/493/1 1020/1020/1 1019/1019/1
f 494/494/1 495/495/1 1021/1021/1
f 494/494/1 1021/1021/1 1020/1020/1
f 495/495/1 496/496/1 1022/1022/1
f 495/495/1 1022/1022/1 1021/1021/1
f 496/496/1 497/497/1 1023/1023/1
f 496/496/1 1023/1023/1 1022/1022/1
f 497/497/1 498/498/1 1024/1024/1
f 497/497/1 1024/1024/1 1023/1023/1
f 498/498/1 499/499/1 1025/1025/1
f 498/498/1 1025/1025/1 1024/1024/1
f 499/499/1 500/500/1 1026/1026/1
f 499/499/1 1026/1026/1 1025/1025/1
f 500/500/1 501/501/1 1027/1027/1
f 500/500/1 1027/1027/1 1026/1026/1
f 501/501/1 502/502/1 1028/1028/1
f 501/501/1 1028/1028/1 1027/1027/1
f 502/502/1 503/503/1 1029/1029/1
f 502/502/1 1029/1029/1 1028/1028/1
f 503/503/1 504/504/1 1030/1030/1
f 503/503/1 1030/1030/1 1029/1029/1
f 504/504/1 505/505/1 1031/1031/1
f 504/504/1 1031/1031/1 1030/1030/1
f 505/505/1 506/506/1 1032/1032/1
f 505/505/1 1032/1032/1 1031/1031/1
f 506/506/1 507/507/1 1033/1033/1
f 506/506/1 1033/1033/1 1032/1032/1
f 507/507/1 508/508/1 1034/1034/1
f 507/507/1 1034/1034/1 1033/1033/1
f 508/508/1 509/509/1 1035/1035/1
f 508/508/1 1035/1035/1 1034/1034/1
f 509/509/1 510/510/1 1036/1036/1
f 509/509/1 1036/1036/1 1035/1035/1
f 510/510/1 511/511/1 1037/1037/1
f 510/510/1 1037/1037/1 1036/1036/1
f 511/511/1 512/512/1 1038/1038/1
f 511/511/1 1038/1038/1 1037/1037/1
f 512/512/1 513/513/1 1039/1039/1
f 512/512/1 1039/1039/1 1038/1038/1
f 513/513/1 514/514/1 1040/1040/1
f 513/513/1 1040/1040/1 1039/1039/1
f 514/514/1 515/515/1 1041/1041/1
f 514/514/1 1041/1041/1 1040/1040/1
f 515/515/1 516/516/1 1042/1042/1
f 515/515/1 1042/1042/1 1041/1041/1
f 516/516/1 517/517/1 1043/1043/1
f 516/516/1 1043/1043/1 1042/1042/1
f 517/517/1 518/518/1 1044/1044/1
f 517/517/1 1044/1044/1 1043/1043/1
f 518/518/1 519/519/1 1045/1045/1
f 518/518/1 1045/1045/1 1044/1044/1
f 519/519/1 520/520/1 1046/1046/1
f 519/519/1 1046/1046/1 1045/1045/1
f 520/520/1 521/521/1 1047/1047/1
f 520/520/1 1047/1047/1 1046/1046/1
f 521/521/1 522/522/1 1048/1048/1
f 521/521/1 1048/1048/1 1047/1047/1
f 522/522/1 523/523/1 1049/1049/1
f 522/522/1 1049/1049/1 1048/1048/1
f 523/523/1 524/524/1 1050/1050/1
f 523/523/1 1050/1050/1 1049/1049/1
f 524/524/1 525/525/1 1051/1051/1
f 524/524/1 1051/1051/1 1050/1050/1
f 525/525/1 526/526/1 1052/1052/1
f 525/525/1 1052/1052/1 1051/1051/1
f 526/526/1 1/1/1 527/527/1
f 526/526/1 527/527/1 1052/1052/1
